<?xml version="1.0" encoding="utf-8"?>
<!-- Generator: Adobe Illustrator 16.0.0, SVG Export Plug-In . SVG Version: 6.00 Build 0)  -->
<!DOCTYPE svg PUBLIC "-//W3C//DTD SVG 1.1//EN" "http://www.w3.org/Graphics/SVG/1.1/DTD/svg11.dtd">
<svg version="1.1" id="Layer_1" xmlns="http://www.w3.org/2000/svg" xmlns:xlink="http://www.w3.org/1999/xlink" x="0px" y="0px"
	 width="60px" height="80px" viewBox="0 0 60 80" style="enable-background:new 0 0 60 80;"
	 xml:space="preserve">
<style type="text/css">
	.st0{fill:none;stroke:#1D1D19;stroke-miterlimit:10;}
		        

#Layer_1:hover .st0{
stroke-dasharray: 370;
  stroke-dashoffset: 370;
stroke:#E8A423;
animation: dash 3s linear  forwards;
  -webkit-animation: dash 3s linear  forwards;
}

@keyframes dash {
  from {
    stroke-dashoffset: 370;
  }
  to {
    stroke-dashoffset: 0;
  }
}

@-webkit-keyframes dash {
  from {
    stroke-dashoffset: 1200;
  }
  to {
    stroke-dashoffset: 0;
  }
}
</style>
<g>
	<path class="st0 st01" d="M30.19,49.253c8.304,0,16.608,0.001,24.911,0c3.204,0,3.965-0.55,3.971-2.932
		c0.008-6.225,0.003-12.448,0.003-18.672c0-5.027,0.014-10.055-0.009-15.082c-0.01-2.348-0.629-2.791-3.7-2.798
		c-0.835-0.001-1.701,0.104-2.503-0.019c-2.764-0.425-3.925,0.853-4.945,2.393c-0.495,0.746-0.149,0.943,0.813,0.937
		c1.547-0.011,3.098,0.064,4.635-0.017c1.807-0.094,2.484,0.372,2.475,1.783c-0.071,8.666-0.068,17.332-0.004,25.998
		c0.009,1.325-0.583,1.72-2.336,1.715c-15.512-0.04-31.026-0.043-46.539,0.004c-1.88,0.006-2.412-0.454-2.401-1.814
		c0.066-8.617,0.077-17.236-0.007-25.854c-0.015-1.513,0.753-1.85,2.607-1.837c8.174,0.055,16.352-0.037,24.524,0.065
		c2.104,0.026,3.125-0.525,3.852-1.903c0.604-1.146,0.408-1.479-1.328-1.471C24.361,9.793,14.511,9.766,4.663,9.772
		c-2.585,0.001-3.315,0.505-3.319,2.494C1.316,23.758,1.318,35.249,1.338,46.741c0.003,1.877,0.96,2.511,3.554,2.511
		C13.325,49.255,21.757,49.253,30.19,49.253z M47.467,1.444c0.957,1.396-1.167,1.824-1.638,2.719
		c-0.481,0.92-0.901,0.119-1.315-0.139c-0.501-0.312-0.817-0.107-1.059,0.234c-0.299,0.422-0.582,0.849-0.874,1.274
		c-3.718,5.392-7.434,10.785-11.153,16.176c-1.523,2.207-3.019,4.425-4.602,6.608c-0.88,1.212,0.486,1.729,1.323,2.195
		c1.034,0.579,1.163-0.493,1.496-0.855c2.536-2.752,4.971-5.556,7.451-8.335c3.971-4.448,7.958-8.888,11.926-13.336
		c1.333-1.496,1.949-3.108,1.28-4.897C49.875,1.938,49.022,1.218,47.467,1.444z M30.137,57.592c2.373,0,4.747-0.008,7.121,0.005
		c1.223,0.005,1.396-0.395,0.646-1.009c-1.241-1.021-1.675-2.214-1.672-3.548c0.002-0.931-0.608-1.364-1.923-1.343
		c-2.691,0.041-5.389,0.052-8.081-0.006c-1.523-0.034-2.088,0.481-2.088,1.529c0.001,1.223-0.357,2.352-1.517,3.298
		c-0.259,0.211-0.766,0.484-0.465,0.857c0.272,0.337,0.813,0.211,1.241,0.213C25.646,57.603,27.891,57.597,30.137,57.592z
		 M18.083,36.655c2.934,0.576,5.037-0.346,7.218-0.691c1.947-0.308,2.774-1.343,2.546-2.608c-0.244-1.346-2.165-2.904-3.804-2.856
		c-1.81,0.052-2.282,1.16-2.681,2.262C20.849,34.178,20.48,35.666,18.083,36.655z"/>
	<path class="st0" d="M30.19,49.253c-8.433,0-16.865,0.002-25.297-0.002c-2.594,0-3.551-0.634-3.554-2.511
		C1.318,35.249,1.316,23.758,1.343,12.267c0.004-1.989,0.734-2.493,3.319-2.494c9.849-0.007,19.698,0.021,29.546-0.025
		c1.736-0.009,1.932,0.325,1.328,1.471c-0.727,1.378-1.748,1.93-3.852,1.903c-8.172-0.103-16.35-0.01-24.524-0.065
		c-1.854-0.013-2.623,0.325-2.607,1.837c0.083,8.618,0.073,17.237,0.007,25.854c-0.01,1.36,0.521,1.82,2.401,1.814
		c15.512-0.047,31.027-0.044,46.539-0.004c1.753,0.005,2.345-0.39,2.336-1.715c-0.064-8.666-0.067-17.332,0.004-25.998
		c0.01-1.411-0.668-1.877-2.475-1.783c-1.537,0.081-3.088,0.006-4.635,0.017c-0.963,0.007-1.309-0.19-0.813-0.937
		c1.021-1.54,2.182-2.818,4.945-2.393c0.802,0.124,1.668,0.018,2.503,0.019c3.071,0.008,3.69,0.451,3.7,2.798
		c0.022,5.027,0.009,10.055,0.009,15.082c0,6.225,0.005,12.448-0.003,18.672c-0.006,2.382-0.767,2.932-3.971,2.932
		C46.798,49.254,38.494,49.253,30.19,49.253z"/>
	<path class="st0" d="M47.467,1.444c1.555-0.226,2.407,0.495,2.836,1.644c0.669,1.79,0.053,3.402-1.28,4.897
		c-3.968,4.449-7.955,8.888-11.926,13.336c-2.48,2.779-4.915,5.583-7.451,8.335c-0.333,0.362-0.462,1.434-1.496,0.855
		c-0.837-0.466-2.203-0.983-1.323-2.195c1.583-2.184,3.078-4.401,4.602-6.608c3.72-5.391,7.436-10.784,11.153-16.176
		c0.292-0.425,0.575-0.853,0.874-1.274c0.241-0.341,0.558-0.546,1.059-0.234c0.414,0.258,0.834,1.059,1.315,0.139
		C46.3,3.268,48.424,2.839,47.467,1.444z"/>
	<path class="st0" d="M30.137,57.594c-2.246,0.003-4.491,0.009-6.736-0.005c-0.429-0.002-0.969,0.124-1.241-0.213
		c-0.301-0.373,0.206-0.646,0.465-0.857c1.159-0.946,1.518-2.075,1.517-3.298c0-1.048,0.564-1.563,2.088-1.529
		c2.692,0.058,5.39,0.047,8.081,0.006c1.314-0.021,1.925,0.412,1.923,1.343c-0.003,1.334,0.431,2.527,1.672,3.548
		c0.75,0.614,0.576,1.014-0.646,1.009C34.884,57.584,32.51,57.592,30.137,57.594z"/>
	<path class="st0" d="M18.083,36.655c2.397-0.989,2.767-2.477,3.279-3.893c0.398-1.103,0.871-2.21,2.681-2.262
		c1.639-0.048,3.56,1.51,3.804,2.856c0.229,1.266-0.599,2.3-2.546,2.608C23.12,36.309,21.016,37.231,18.083,36.655z"/>
</g>
</svg>
