<?xml version="1.0" encoding="utf-8"?>
<!-- Generator: Adobe Illustrator 16.0.0, SVG Export Plug-In . SVG Version: 6.00 Build 0)  -->
<!DOCTYPE svg PUBLIC "-//W3C//DTD SVG 1.1//EN" "http://www.w3.org/Graphics/SVG/1.1/DTD/svg11.dtd">
<svg version="1.1" id="Layer_1" xmlns="http://www.w3.org/2000/svg" xmlns:xlink="http://www.w3.org/1999/xlink" x="0px" y="0px"
	 width="60px" height="80px" viewBox="0 0 60 80" style="enable-background:new 0 0 60 80;" xml:space="preserve">
<style type="text/css">
<![CDATA[
	.st0{fill:none;stroke:#1D1D19;stroke-miterlimit:10;}


#Layer_1:hover .st0{
stroke:#E8A423;
stroke-dasharray: 470;
  stroke-dashoffset: 370;
  animation: dash 2s linear  forwards;
  -webkit-animation: dash 2s linear  forwards;
}

@keyframes dash {
  from {
    stroke-dashoffset: 470;
  }
  to {
    stroke-dashoffset: 0;
  }
}

@-webkit-keyframes dash {
  from {
    stroke-dashoffset: 470;
  }
  to {
    stroke-dashoffset: 0;
  }
}
]]>
</style>
<g>
	<path class="st0" d="M1.753,66.366c0-17.272,0-34.545,0-51.818c0.52-2.272,0.965-4.569,2.101-6.633
		c1.568-2.852,3.582-5.148,7.02-5.16c12.88-0.043,25.759-0.018,38.639-0.016c0.48,0,0.947,0.049,1.425,0.168
		c2.796,0.698,4.394,2.78,5.699,5.211c1.077,2.005,1.491,4.233,1.998,6.429c0,17.273,0,34.546,0,51.818
		c-0.536,2.427-1.06,4.846-2.271,7.055c-1.728,3.147-4.064,5.104-7.766,4.768c-0.845-0.076-1.703-0.029-2.554-0.011
		c-1.228,0.027-1.98-0.563-2.453-1.738c-0.555-1.381-0.285-2.803-0.375-4.207c-0.046-0.706,0.284-1.662-0.957-1.633
		c-1.225,0.028-0.889,0.991-0.915,1.688c-0.038,1.033-0.009,2.067-0.188,3.096c-0.353,2.028-1.177,2.79-3.131,2.792
		c-5.221,0.007-10.441,0.006-15.662,0.001c-1.985-0.002-2.844-0.827-3.145-2.896c-0.178-1.223-0.173-2.447-0.168-3.674
		c0.005-0.93-0.526-1.088-1.247-0.988c-0.673,0.093-0.616,0.641-0.638,1.143c-0.07,1.598,0.212,3.22-0.416,4.777
		c-0.419,1.039-1.106,1.605-2.186,1.625c-1.111,0.02-2.224-0.036-3.332,0.023c-2.979,0.159-5.028-1.334-6.627-3.788
		C3.013,71.953,2.336,69.184,1.753,66.366z M54.113,40.572c0-7.522,0.001-15.043-0.001-22.565c0-1.475-0.274-2.896-0.832-4.254
		c-0.794-1.936-2.007-2.927-4.241-2.906c-11.181,0.104-22.363,0.046-33.545,0.048c-1.777,0-3.554,0.023-5.331,0.02
		c-0.799-0.001-1.395,0.337-1.914,0.967c-1.395,1.695-1.953,3.71-1.957,5.858C6.263,32.937,6.277,48.135,6.277,63.332
		c0,1.283,0.202,2.559,0.72,3.698c0.93,2.048,1.916,3.418,4.304,3.247c0.963-0.069,1.302-0.396,1.276-1.38
		c-0.038-1.374-0.149-2.769,0.329-4.104c0.403-1.123,1.087-2.096,2.607-1.993c1.659,0.111,3.331,0.023,4.997,0.025
		c1.861,0.002,2.717,0.76,3.095,2.681c0.209,1.063,0.213,2.132,0.213,3.206c0,1.449,0.071,1.53,1.42,1.534
		c3.295,0.008,6.59,0.008,9.886,0c1.381-0.003,1.448-0.074,1.447-1.506c-0.003-1.382-0.04-2.767,0.466-4.083
		c0.545-1.42,1.128-1.828,2.582-1.831c1.74-0.005,3.48-0.005,5.221,0c1.489,0.003,2.05,0.467,2.624,1.939
		c0.553,1.417,0.291,2.881,0.362,4.325c0.024,0.467-0.015,1.035,0.567,1.087c1.127,0.102,2.283,0.303,3.264-0.612
		c1.819-1.697,2.429-3.91,2.44-6.313C54.137,55.692,54.112,48.132,54.113,40.572z"/>
	<path class="st0" d="M54.113,40.572c-0.001,7.56,0.023,15.121-0.016,22.681c-0.012,2.403-0.621,4.616-2.44,6.313
		c-0.98,0.915-2.137,0.714-3.264,0.612c-0.582-0.052-0.543-0.62-0.567-1.087c-0.071-1.444,0.19-2.908-0.362-4.325
		c-0.574-1.473-1.135-1.937-2.624-1.939c-1.74-0.005-3.48-0.005-5.221,0c-1.454,0.003-2.037,0.411-2.582,1.831
		c-0.506,1.316-0.469,2.701-0.466,4.083c0.001,1.432-0.066,1.503-1.447,1.506c-3.296,0.008-6.591,0.008-9.886,0
		c-1.349-0.004-1.42-0.085-1.42-1.534c0-1.074-0.003-2.144-0.213-3.206c-0.378-1.921-1.234-2.679-3.095-2.681
		c-1.666-0.002-3.338,0.086-4.997-0.025c-1.52-0.103-2.205,0.87-2.607,1.993c-0.478,1.335-0.366,2.729-0.329,4.104
		c0.026,0.984-0.313,1.311-1.276,1.38c-2.388,0.171-3.374-1.199-4.304-3.247c-0.518-1.14-0.72-2.415-0.72-3.698
		c0-15.197-0.014-30.395,0.015-45.592c0.004-2.147,0.562-4.163,1.957-5.858c0.519-0.63,1.114-0.969,1.914-0.967
		c1.777,0.003,3.554-0.02,5.331-0.02c11.182-0.002,22.365,0.056,33.545-0.048c2.234-0.021,3.447,0.97,4.241,2.906
		c0.558,1.358,0.832,2.779,0.832,4.254C54.114,25.528,54.113,33.05,54.113,40.572z M46.7,33.215c-0.002,0-0.003,0-0.005,0
		c0-2.11-0.033-4.222,0.015-6.331c0.022-1.057-0.386-1.533-1.376-1.352c-1.146,0.21-2.203,0.147-3.379-0.135
		c-1.741-0.419-2.854,1.017-3.499,2.435c-2.164,4.762-2.09,9.662-0.244,14.496c0.889,2.327,2.989,3.408,5.356,1.526
		c0.197-0.156,0.396-0.501,0.554-0.013c0.18,0.56,0.611,0.483,1.002,0.489c1.074,0.017,2.147,0.01,3.221,0.01
		c1.871-0.001,1.874-0.002,2.355-1.941c1.043-4.214,1.255-8.494,0.609-12.775c-0.531-3.527-1.683-6.832-4.241-9.415
		c-2.317-2.339-5.92-2.837-8.67-0.827c-1.925,1.407-3.093,3.356-4.035,5.5c-1.638,3.726-1.964,7.674-1.807,11.701
		c0.131,3.372,0.721,6.651,2.264,9.641c1.786,3.46,4.376,5.732,8.464,5.475c2.531-0.16,3.217-0.86,3.211-3.419
		c0-0.192-0.008-0.385-0.001-0.576c0.037-0.929-0.103-1.353-1.189-0.871c-2.059,0.91-4.15,1.053-6.075-0.461
		c-1.312-1.031-2.099-2.448-2.692-4c-1.199-3.145-1.371-6.441-1.084-9.741c0.286-3.289,1.104-6.446,3.568-8.805
		c1.04-0.995,2.286-1.843,3.772-1.503c2.219,0.508,3.783,1.929,4.678,4.141c1.741,4.312,1.561,8.751,0.907,13.234
		c-0.085,0.583-0.248,1.054-0.946,1.015c-0.761-0.043-0.729-0.621-0.73-1.166C46.698,37.436,46.7,35.326,46.7,33.215z
		 M19.194,51.702c0.985,0,1.877,0.055,2.761-0.012c1.529-0.114,2.997-0.605,4.242-1.48c2.021-1.421,2.494-4.915,1.183-7.276
		c-1.072-1.934-2.775-3.119-4.516-4.282c-1.584-1.059-1.971-2.205-1.031-3.958c1.658-3.089,1.976-6.399,1.741-9.807
		c-0.14-2.038-0.529-4.059-1.906-5.652c-0.761-0.88-1.741-1.487-2.947-1.173c-1.284,0.335-2.217,1.175-2.765,2.447
		c-1.117,2.596-1.326,5.324-1.076,8.11c0.188,2.086,0.788,4.04,1.73,5.902c0.736,1.454,0.543,3.05-0.345,3.703
		c-0.63,0.462-1.307,0.857-1.937,1.321c-2.399,1.765-4.174,3.839-3.804,7.234c0.207,1.891,1.104,3.233,2.817,3.994
		C15.268,51.627,17.245,51.838,19.194,51.702z"/>
	<path class="st0" d="M46.7,33.215c0,2.11-0.002,4.221,0.002,6.332c0.001,0.545-0.03,1.123,0.73,1.166
		c0.698,0.04,0.861-0.431,0.946-1.015c0.653-4.482,0.834-8.922-0.907-13.234c-0.895-2.212-2.459-3.633-4.678-4.141
		c-1.486-0.34-2.732,0.508-3.772,1.503c-2.464,2.359-3.282,5.517-3.568,8.805c-0.287,3.299-0.115,6.596,1.084,9.741
		c0.594,1.552,1.381,2.969,2.692,4c1.925,1.514,4.017,1.371,6.075,0.461c1.087-0.481,1.227-0.058,1.189,0.871
		c-0.007,0.191,0.001,0.384,0.001,0.576c0.006,2.559-0.68,3.259-3.211,3.419c-4.088,0.258-6.678-2.015-8.464-5.475
		c-1.543-2.989-2.133-6.269-2.264-9.641c-0.157-4.027,0.169-7.975,1.807-11.701c0.942-2.145,2.11-4.094,4.035-5.5
		c2.75-2.01,6.353-1.512,8.67,0.827c2.559,2.583,3.71,5.888,4.241,9.415c0.646,4.281,0.434,8.561-0.609,12.775
		c-0.481,1.939-0.484,1.94-2.355,1.941c-1.073,0-2.146,0.007-3.221-0.01c-0.391-0.006-0.822,0.07-1.002-0.489
		c-0.158-0.488-0.356-0.144-0.554,0.013c-2.367,1.882-4.468,0.801-5.356-1.526c-1.846-4.833-1.92-9.734,0.244-14.496
		c0.645-1.418,1.758-2.854,3.499-2.435c1.176,0.283,2.233,0.345,3.379,0.135c0.99-0.181,1.398,0.295,1.376,1.352
		c-0.048,2.109-0.015,4.221-0.015,6.331C46.697,33.215,46.698,33.215,46.7,33.215z M43.696,34.861c0.001,0,0.002,0,0.004,0
		c0-1.225,0.006-2.45-0.002-3.674c-0.01-1.404-0.399-1.728-1.743-1.64c-0.942,0.062-1.259,0.748-1.462,1.485
		c-0.74,2.666-0.673,5.361-0.126,8.053c0.067,0.327,0.247,0.643,0.427,0.928c0.512,0.813,1.517,0.937,2.188,0.257
		c0.461-0.466,0.742-1.02,0.724-1.734C43.673,37.312,43.696,36.086,43.696,34.861z"/>
	<path class="st0" d="M19.194,51.702c-1.949,0.136-3.927-0.075-5.852-0.93c-1.713-0.761-2.61-2.104-2.817-3.994
		c-0.371-3.395,1.405-5.469,3.804-7.234c0.63-0.464,1.307-0.859,1.937-1.321c0.889-0.653,1.082-2.249,0.345-3.703
		c-0.943-1.862-1.543-3.816-1.73-5.902c-0.25-2.786-0.041-5.514,1.076-8.11c0.547-1.272,1.48-2.112,2.765-2.447
		c1.206-0.314,2.187,0.292,2.947,1.173c1.377,1.594,1.766,3.614,1.906,5.652c0.234,3.408-0.083,6.718-1.741,9.807
		c-0.94,1.752-0.554,2.898,1.031,3.958c1.741,1.163,3.444,2.348,4.516,4.282c1.311,2.361,0.837,5.855-1.183,7.276
		c-1.245,0.875-2.713,1.366-4.242,1.48C21.072,51.757,20.18,51.702,19.194,51.702z"/>
	<path class="st0" d="M43.696,34.861c0,1.225-0.023,2.451,0.009,3.675c0.019,0.714-0.263,1.268-0.724,1.734
		c-0.671,0.68-1.676,0.557-2.188-0.257c-0.18-0.286-0.359-0.602-0.427-0.928c-0.547-2.691-0.614-5.387,0.126-8.053
		c0.203-0.737,0.52-1.424,1.462-1.485c1.344-0.087,1.733,0.236,1.743,1.64c0.008,1.225,0.002,2.45,0.002,3.674
		C43.698,34.861,43.697,34.861,43.696,34.861z"/>
</g>
</svg>
