<?xml version="1.0" encoding="utf-8"?>
<!-- Generator: Adobe Illustrator 16.0.0, SVG Export Plug-In . SVG Version: 6.00 Build 0)  -->
<!DOCTYPE svg PUBLIC "-//W3C//DTD SVG 1.1//EN" "http://www.w3.org/Graphics/SVG/1.1/DTD/svg11.dtd">
<svg version="1.1" id="Layer_1" xmlns="http://www.w3.org/2000/svg" xmlns:xlink="http://www.w3.org/1999/xlink" x="0px" y="0px"
	 width="60px" height="80px" viewBox="0 0 60 80" style="enable-background:new 0 0 60 80;" xml:space="preserve">
<style type="text/css">
	.st0{fill:none;stroke:#E8B121;stroke-miterlimit:10;}
	
		    .st0 , .st1 {
  stroke-dasharray: 470;
  stroke-dashoffset: 370;
  animation: dash 3s linear  forwards;
  -webkit-animation: dash 3s linear  forwards;
}

@keyframes dash {
  from {
    stroke-dashoffset: 470;
  }
  to {
    stroke-dashoffset: 0;
  }
}

@-webkit-keyframes dash {
  from {
    stroke-dashoffset: 470;
  }
  to {
    stroke-dashoffset: 0;
  }
}

</style>
<g>
	<path class="st0" d="M59.473,40.086c-0.003-0.544-0.031-1.087-0.042-1.631c-0.027-1.387-0.134-2.769-0.289-4.146
		c-0.23-2.035-0.58-4.051-1.064-6.043c-0.917-3.77-2.252-7.38-4.11-10.79c-1.642-3.013-3.629-5.772-6.053-8.213
		c-2.036-2.051-4.313-3.774-6.871-5.121c-1.792-0.943-3.676-1.646-5.651-2.099c-1.637-0.375-3.296-0.563-4.976-0.564
		c-0.651,0-1.298,0.053-1.946,0.104c-0.991,0.078-1.968,0.237-2.935,0.458c-3.454,0.791-6.556,2.336-9.377,4.456
		c-2.317,1.741-4.313,3.807-6.065,6.11c-1.652,2.172-3.044,4.502-4.207,6.972c-0.947,2.011-1.737,4.081-2.374,6.209
		c-0.843,2.816-1.418,5.686-1.742,8.608c-0.141,1.272-0.246,2.547-0.282,3.825c-0.04,1.438-0.045,2.877,0.031,4.317
		c0.058,1.087,0.142,2.169,0.258,3.25c0.212,1.975,0.553,3.927,1.01,5.857c0.865,3.648,2.127,7.149,3.875,10.472
		c2.029,3.858,4.581,7.312,7.873,10.195c1.579,1.383,3.279,2.588,5.13,3.58c1.909,1.023,3.923,1.765,6.032,2.247
		c1.322,0.303,2.67,0.431,4.021,0.52c1.067,0.07,2.133-0.029,3.191-0.14c1.059-0.111,2.104-0.319,3.137-0.59
		c1.543-0.403,3.028-0.954,4.457-1.654c2.442-1.196,4.625-2.769,6.61-4.619c1.881-1.753,3.516-3.717,4.949-5.848
		c1.12-1.666,2.1-3.413,2.96-5.229c0.855-1.806,1.578-3.663,2.18-5.565c0.982-3.11,1.63-6.291,1.972-9.536
		C59.364,43.685,59.443,41.887,59.473,40.086z"/>
	<path class="st0" d="M59.473,40.086c-0.029,1.801-0.108,3.599-0.298,5.393c-0.342,3.245-0.989,6.426-1.972,9.536
		c-0.602,1.902-1.324,3.76-2.18,5.565c-0.86,1.815-1.84,3.563-2.96,5.229c-1.434,2.131-3.068,4.095-4.949,5.848
		c-1.985,1.851-4.168,3.423-6.61,4.619c-1.429,0.7-2.914,1.251-4.457,1.654c-1.033,0.271-2.078,0.479-3.137,0.59
		c-1.059,0.11-2.124,0.21-3.191,0.14c-1.351-0.089-2.699-0.217-4.021-0.52c-2.109-0.482-4.123-1.224-6.032-2.247
		c-1.851-0.992-3.552-2.197-5.13-3.58c-3.292-2.884-5.843-6.337-7.873-10.195c-1.748-3.322-3.01-6.823-3.875-10.472
		c-0.458-1.931-0.798-3.883-1.01-5.857c-0.117-1.081-0.201-2.163-0.258-3.25c-0.077-1.439-0.071-2.878-0.031-4.317
		c0.036-1.278,0.141-2.553,0.282-3.825c0.324-2.922,0.899-5.792,1.742-8.608c0.637-2.128,1.427-4.198,2.374-6.209
		c1.163-2.469,2.555-4.799,4.207-6.972c1.751-2.303,3.748-4.37,6.065-6.11c2.821-2.12,5.923-3.666,9.377-4.456
		c0.966-0.221,1.943-0.38,2.935-0.458c0.648-0.051,1.295-0.104,1.946-0.104c1.68,0.001,3.339,0.19,4.976,0.564
		c1.976,0.452,3.859,1.155,5.651,2.099c2.558,1.347,4.835,3.069,6.871,5.121c2.424,2.441,4.411,5.2,6.053,8.213
		c1.858,3.41,3.193,7.021,4.11,10.79c0.484,1.992,0.834,4.008,1.064,6.043c0.155,1.377,0.262,2.758,0.289,4.146
		C59.441,38.999,59.47,39.542,59.473,40.086z M21.357,7.013c-0.387,0.187-0.383,0.193-0.03,0.454
		c1.063,0.785,2.13,1.566,3.182,2.366c0.238,0.181,0.448,0.313,0.742,0.15c0.063-0.035,0.143-0.041,0.214-0.063
		c1.217-0.377,2.467-0.604,3.732-0.683c1.083-0.066,2.17-0.072,3.256,0.078c1.186,0.164,2.35,0.4,3.489,0.768
		c1.799,0.581,3.471,1.418,5.032,2.475c2.075,1.405,3.855,3.131,5.411,5.086c1.729,2.173,3.113,4.557,4.209,7.109
		c1.299,3.025,2.17,6.171,2.648,9.427c0.013,0.082,0.047,0.167-0.027,0.253c-0.108-0.004-0.186-0.08-0.27-0.143
		c-0.29-0.217-0.58-0.434-0.872-0.649c-2.627-1.936-5.255-3.87-7.881-5.807c-1.227-0.905-2.447-1.818-3.673-2.724
		c-1.887-1.394-3.776-2.782-5.663-4.176c-3.138-2.319-6.274-4.642-9.411-6.962c-0.386-0.285-0.771-0.57-1.158-0.854
		c-0.049-0.036-0.103-0.093-0.167-0.037c-0.044,0.039-0.026,0.1-0.017,0.151c0.012,0.063,0.031,0.124,0.046,0.187
		c0.466,1.938,0.931,3.877,1.398,5.815c0.892,3.7,1.786,7.4,2.678,11.1c0.88,3.648,1.761,7.297,2.641,10.945
		c0.443,1.835,0.886,3.669,1.328,5.504c0.23,0.953,0.459,1.907,0.694,2.859c0.07,0.282,0.129,0.309,0.408,0.229
		c1.24-0.353,2.481-0.702,3.721-1.06c2.611-0.755,5.221-1.515,7.831-2.271c1.721-0.497,3.442-0.99,5.162-1.486
		c1.035-0.299,2.068-0.601,3.103-0.898c0.295-0.084,0.362-0.033,0.327,0.257c-0.086,0.719-0.177,1.438-0.288,2.154
		c-0.034,0.222-0.14,0.344-0.347,0.402c-0.614,0.174-1.228,0.352-1.842,0.527c-0.992,0.285-1.985,0.568-2.978,0.855
		c-0.787,0.227-1.573,0.46-2.361,0.685c-0.87,0.249-1.743,0.487-2.612,0.738c-0.372,0.106-0.373,0.116-0.274,0.483
		c0.649,2.42,1.301,4.839,1.951,7.259c0.446,1.657,0.887,3.316,1.341,4.973c0.069,0.255,0.03,0.436-0.148,0.634
		c-0.357,0.396-0.696,0.807-1.072,1.187c-0.087,0.088-0.161,0.248-0.292,0.22c-0.138-0.03-0.127-0.208-0.158-0.327
		c-1.202-4.469-2.4-8.938-3.6-13.407c-0.014-0.052-0.031-0.102-0.044-0.153c-0.031-0.134-0.116-0.168-0.24-0.133
		c-0.194,0.055-0.391,0.106-0.585,0.163c-2.652,0.765-5.305,1.529-7.958,2.294c-0.309,0.089-0.321,0.084-0.395-0.215
		c-0.402-1.658-0.804-3.316-1.204-4.975c-0.636-2.632-1.269-5.266-1.905-7.897c-0.078-0.324-0.091-0.33-0.413-0.225
		c-1.246,0.409-2.491,0.82-3.736,1.232c-2.125,0.704-4.25,1.409-6.375,2.112c-2.974,0.983-5.948,1.965-8.921,2.949
		c-0.096,0.032-0.243,0.012-0.269,0.135c-0.027,0.125,0.116,0.164,0.196,0.224c1.65,1.229,3.303,2.455,4.955,3.684
		c1.326,0.985,2.65,1.974,3.976,2.96c1.771,1.317,3.541,2.635,5.313,3.95c2.045,1.521,4.093,3.038,6.138,4.56
		c1.531,1.139,3.057,2.283,4.588,3.423c1.616,1.203,3.236,2.401,4.854,3.604c0.304,0.226,0.302,0.271-0.034,0.444
		c-0.987,0.509-2.016,0.917-3.078,1.237c-1.104,0.333-2.23,0.551-3.378,0.683c-1.001,0.115-2.004,0.124-3.002,0.056
		c-0.975-0.067-1.943-0.223-2.9-0.455c-1.018-0.248-2.006-0.574-2.967-0.983c-2.433-1.035-4.557-2.537-6.467-4.348
		c-1.054-1-1.998-2.103-2.871-3.264c-1.683-2.239-2.994-4.687-4.057-7.271c-0.679-1.649-1.212-3.349-1.617-5.086
		c-0.08-0.344-0.243-0.586-0.529-0.792c-0.942-0.68-1.867-1.383-2.803-2.072 M7.707,43.563c0.141,0.045,0.222,0.013,0.301-0.013
		c1.568-0.517,3.135-1.033,4.702-1.554c1.213-0.402,2.422-0.816,3.637-1.213c2.176-0.711,4.343-1.45,6.525-2.144
		c1.524-0.485,3.037-1.003,4.555-1.507c0.293-0.098,0.307-0.117,0.238-0.409c-0.149-0.633-0.299-1.266-0.451-1.898
		c-0.739-3.068-1.479-6.137-2.22-9.204c-1.162-4.809-2.326-9.618-3.489-14.426c-0.022-0.09-0.026-0.187-0.123-0.292
		C16.821,21.797,12.268,32.67,7.707,43.563z M7.152,39.425c0.054-0.129,0.083-0.262,0.1-0.401c0.07-0.594,0.048-1.192,0.093-1.788
		c0.084-1.095,0.192-2.187,0.359-3.272c0.378-2.461,0.975-4.867,1.821-7.212c0.993-2.753,2.302-5.343,3.98-7.742
		c1.134-1.621,2.417-3.115,3.893-4.438c0.161-0.144,0.292-0.303,0.376-0.507c0.87-2.086,1.745-4.17,2.616-6.255
		c0.031-0.074,0.094-0.146,0.041-0.261c-0.129-0.002-0.215,0.067-0.306,0.119 M4.269,44.859 M4.422,33.982"/>
	<path class="st0" d="M7.707,43.563c4.561-10.893,9.114-21.766,13.675-32.66c0.097,0.104,0.101,0.202,0.123,0.292
		c1.163,4.809,2.327,9.617,3.489,14.426c0.741,3.067,1.48,6.136,2.22,9.204c0.152,0.632,0.302,1.265,0.451,1.898
		c0.068,0.292,0.055,0.311-0.238,0.409c-1.518,0.504-3.031,1.022-4.555,1.507c-2.182,0.694-4.349,1.433-6.525,2.144
		c-1.215,0.396-2.424,0.811-3.637,1.213c-1.566,0.521-3.134,1.037-4.702,1.554C7.929,43.576,7.848,43.608,7.707,43.563z"/>
	<path class="st0" d="M4.422,33.982"/>
	<path class="st0" d="M4.269,44.859"/>
	<path class="st0" d="M20.126,7.667c0.091-0.052,0.176-0.121,0.306-0.119c0.053,0.114-0.01,0.187-0.041,0.261
		c-0.872,2.085-1.747,4.169-2.616,6.255c-0.085,0.204-0.216,0.363-0.376,0.507c-1.476,1.323-2.759,2.817-3.893,4.438
		c-1.678,2.399-2.987,4.989-3.98,7.742c-0.846,2.345-1.443,4.751-1.821,7.212c-0.167,1.085-0.275,2.177-0.359,3.272
		c-0.045,0.596-0.023,1.194-0.093,1.788c-0.017,0.139-0.045,0.272-0.1,0.401"/>
</g>
</svg>
