<?xml version="1.0" encoding="utf-8"?>
<!-- Generator: Adobe Illustrator 16.0.0, SVG Export Plug-In . SVG Version: 6.00 Build 0)  -->
<!DOCTYPE svg PUBLIC "-//W3C//DTD SVG 1.1//EN" "http://www.w3.org/Graphics/SVG/1.1/DTD/svg11.dtd">
<svg version="1.1" id="Layer_1" xmlns="http://www.w3.org/2000/svg" xmlns:xlink="http://www.w3.org/1999/xlink" x="0px" y="0px"
	 width="60.437px" height="80.529px" viewBox="0 0 60.437 80.529" style="enable-background:new 0 0 60.437 80.529;"
	 xml:space="preserve">
<style type="text/css">
	
	.st0{fill-rule:evenodd;clip-rule:evenodd;fill:none;}
	.st1{fill-rule:evenodd;clip-rule:evenodd;fill:none;stroke:#E8A423;stroke-miterlimit:10;}
	    .st0 ,.st1 {
  stroke-dasharray: 370;
  stroke-dashoffset: 370;
  animation: dash 2s linear  forwards;
  -webkit-animation: dash 2s linear  forwards;
}

@keyframes dash {
  from {
    stroke-dashoffset: 370;
  }
  to {
    stroke-dashoffset: 0;
  }
}

@-webkit-keyframes dash {
  from {
    stroke-dashoffset: 1200;
  }
  to {
    stroke-dashoffset: 0;
  }
}
</style>
<g>
	<path class="st0" d="M0.815,40.476c0.212,2.505,0.315,5.026,0.66,7.513c0.759,5.479,2.379,10.701,5.031,15.58
		c1.463,2.693,3.124,5.253,5.283,7.442c1.334,1.353,2.722,2.665,4.187,3.873c0.965,0.796,2.077,1.436,3.185,2.031
		c1.074,0.577,2.2,1.081,3.35,1.486c1.319,0.466,2.667,0.945,4.042,1.141c3.405,0.483,6.812,0.447,10.115-0.692
		c1.34-0.462,2.717-0.895,3.947-1.576c1.635-0.906,3.188-1.981,4.693-3.095c2.193-1.62,4-3.655,5.609-5.834
		c2.537-3.434,4.465-7.202,5.85-11.247c2.133-6.237,2.984-12.645,2.658-19.223c-0.26-5.255-1.256-10.356-3.117-15.28
		c-1.42-3.75-3.26-7.285-5.773-10.415c-1.289-1.604-2.697-3.135-4.215-4.522c-1.32-1.207-2.818-2.243-4.332-3.205
		c-1.074-0.683-2.324-1.08-3.461-1.67c-1.66-0.859-3.471-1.232-5.27-1.47c-2.244-0.296-4.51-0.289-6.783,0.139
		c-2.016,0.379-3.95,0.926-5.769,1.849c-1.313,0.666-2.635,1.338-3.862,2.146c-2.139,1.407-3.99,3.172-5.661,5.1
		c-2.573,2.967-4.602,6.29-6.174,9.89C2.218,26.822,0.943,33.513,0.815,40.476z"/>
	<path class="st1" d="M0.815,40.476c0.128-6.963,1.403-13.653,4.192-20.038c1.572-3.6,3.602-6.923,6.174-9.89
		c1.671-1.927,3.522-3.693,5.661-5.1c1.227-0.807,2.549-1.479,3.862-2.146c1.819-0.923,3.752-1.47,5.769-1.849
		c2.273-0.428,4.539-0.435,6.783-0.139c1.799,0.238,3.609,0.61,5.27,1.47c1.137,0.59,2.387,0.987,3.461,1.67
		c1.514,0.962,3.012,1.998,4.332,3.205c1.518,1.387,2.926,2.918,4.215,4.522c2.514,3.13,4.354,6.665,5.773,10.415
		c1.861,4.924,2.857,10.024,3.117,15.28c0.326,6.578-0.525,12.985-2.658,19.223c-1.385,4.045-3.313,7.813-5.85,11.247
		c-1.609,2.179-3.416,4.214-5.609,5.834c-1.506,1.113-3.059,2.188-4.693,3.095c-1.23,0.682-2.607,1.114-3.947,1.576
		c-3.303,1.14-6.71,1.176-10.115,0.692c-1.375-0.195-2.722-0.675-4.042-1.141c-1.149-0.405-2.276-0.909-3.35-1.486
		c-1.108-0.596-2.22-1.235-3.185-2.031c-1.465-1.208-2.853-2.521-4.187-3.873c-2.159-2.189-3.819-4.749-5.283-7.442
		c-2.651-4.879-4.272-10.101-5.031-15.58C1.13,45.501,1.027,42.981,0.815,40.476z M45.305,20.5
		c-0.723,0.177-1.451,0.404-2.195,0.522c-0.918,0.146-1.857,0.26-2.641,0.773c-0.863,0.567-1.441,1.419-1.889,2.349
		c-0.34,0.705-0.576,1.481-1.023,2.107c-1.617,2.261-3.301,4.475-4.965,6.701c-0.873,1.167-1.761,2.323-2.672,3.524
		c-0.556-0.738-1.08-1.425-1.595-2.119c-1.833-2.472-3.666-4.945-5.493-7.422c-0.231-0.314-0.424-0.379-0.684-0.032
		c-0.938,1.256-1.885,2.506-2.854,3.792c1.439,1.931,2.877,3.864,4.318,5.795c0.961,1.289,1.93,2.573,2.886,3.866
		c0.163,0.22,0.258,0.435,0.034,0.733c-1.024,1.356-2.006,2.744-3.021,4.107c-2.471,3.317-4.95,6.63-7.433,9.938
		c-0.224,0.298-0.232,0.534,0.002,0.833c0.558,0.711,1.084,1.445,1.631,2.165c0.398,0.523,0.809,1.038,1.241,1.593
		c3.68-4.907,7.311-9.751,11.016-14.691c2.568,3.449,5.064,6.802,7.645,10.27c0.139-0.2,0.225-0.33,0.314-0.456
		c0.799-1.12,1.566-2.266,2.416-3.346c0.322-0.411,0.264-0.66-0.004-1.017c-2.287-3.066-4.555-6.147-6.861-9.198
		c-0.291-0.384-0.273-0.626-0.023-0.966c2.172-2.943,4.332-5.895,6.516-8.83c0.441-0.593,0.881-1.247,1.473-1.658
		c1.674-1.167,2.627-2.708,2.934-4.713C44.615,23.555,44.623,21.937,45.305,20.5z M41.355,60.384
		c0.176-0.195,0.291-0.302,0.383-0.426c0.828-1.138,1.627-2.3,2.496-3.408c0.289-0.369,0.242-0.61,0.002-0.916
		c-0.086-0.107-0.178-0.21-0.26-0.32c-0.748-1-1.492-2-2.24-3.003c-0.088,0.046-0.154,0.061-0.186,0.102
		c-0.842,1.124-1.645,2.279-2.531,3.365c-0.436,0.534-0.482,0.887-0.021,1.441C39.818,58.207,40.539,59.277,41.355,60.384z
		 M15.676,21.619c0.905,2.652,1.759,5.156,2.648,7.761c0.811-1.116,1.539-2.158,2.307-3.168c0.871-1.145,0.866-1.098-0.385-1.808
		c-1.156-0.656-2.261-1.399-3.393-2.098C16.513,22.094,16.161,21.9,15.676,21.619z"/>
	<path class="st0" d="M45.305,20.5c-0.682,1.437-0.689,3.055-0.928,4.622c-0.307,2.005-1.26,3.546-2.934,4.713
		c-0.592,0.411-1.031,1.064-1.473,1.658c-2.184,2.935-4.344,5.887-6.516,8.83c-0.25,0.34-0.268,0.582,0.023,0.966
		c2.307,3.051,4.574,6.132,6.861,9.198c0.268,0.356,0.326,0.605,0.004,1.017c-0.85,1.08-1.617,2.226-2.416,3.346
		c-0.09,0.126-0.176,0.256-0.314,0.456c-2.58-3.468-5.076-6.82-7.645-10.27c-3.705,4.94-7.336,9.784-11.016,14.691
		c-0.433-0.555-0.843-1.069-1.241-1.593c-0.547-0.72-1.074-1.454-1.631-2.165c-0.234-0.299-0.226-0.535-0.002-0.833
		c2.483-3.309,4.961-6.621,7.433-9.938c1.015-1.363,1.997-2.751,3.021-4.107c0.225-0.298,0.129-0.513-0.034-0.733
		c-0.956-1.293-1.925-2.577-2.886-3.866c-1.441-1.931-2.879-3.864-4.318-5.795c0.969-1.286,1.917-2.535,2.854-3.792
		c0.259-0.347,0.452-0.282,0.684,0.032c1.827,2.477,3.659,4.95,5.493,7.422c0.515,0.694,1.04,1.381,1.595,2.119
		c0.912-1.202,1.799-2.357,2.672-3.524c1.664-2.226,3.348-4.44,4.965-6.701c0.447-0.626,0.684-1.402,1.023-2.107
		c0.447-0.93,1.025-1.782,1.889-2.349c0.783-0.513,1.723-0.627,2.641-0.773C43.854,20.904,44.582,20.676,45.305,20.5z"/>
	<path class="st1" d="M41.355,60.384c-0.816-1.107-1.537-2.178-2.357-3.165c-0.461-0.555-0.414-0.907,0.021-1.441
		c0.887-1.086,1.689-2.241,2.531-3.365c0.031-0.041,0.098-0.056,0.186-0.102c0.748,1.003,1.492,2.003,2.24,3.003
		c0.082,0.11,0.174,0.213,0.26,0.32c0.24,0.306,0.287,0.547-0.002,0.916c-0.869,1.108-1.668,2.271-2.496,3.408
		C41.646,60.083,41.531,60.189,41.355,60.384z"/>
	<path class="st0" d="M15.676,21.619c0.484,0.282,0.836,0.476,1.177,0.687c1.131,0.699,2.237,1.442,3.393,2.098
		c1.251,0.71,1.256,0.663,0.385,1.808c-0.769,1.011-1.497,2.052-2.307,3.168C17.436,26.775,16.581,24.271,15.676,21.619z"/>
</g>
</svg>
