<?xml version="1.0" encoding="utf-8"?>
<!-- Generator: Adobe Illustrator 16.0.0, SVG Export Plug-In . SVG Version: 6.00 Build 0)  -->
<!DOCTYPE svg PUBLIC "-//W3C//DTD SVG 1.1//EN" "http://www.w3.org/Graphics/SVG/1.1/DTD/svg11.dtd">
<svg version="1.1" id="Layer_1" xmlns="http://www.w3.org/2000/svg" xmlns:xlink="http://www.w3.org/1999/xlink" x="0px" y="0px"
	 width="60px" height="80px" viewBox="0 0 60 80" style="enable-background:new 0 0 60 80;" xml:space="preserve">
<style type="text/css">
	.st0{fill:none;stroke:#E8B821;stroke-miterlimit:10;}
.st0{
  stroke-dasharray: 370;
  stroke-dashoffset: 370;
  animation: dash 2s linear  forwards;
  -webkit-animation: dash 2s linear  forwards;
}

@keyframes dash {
  from {
    stroke-dashoffset: 370;
  }
  to {
    stroke-dashoffset: 0;
  }
}

@-webkit-keyframes dash {
  from {
    stroke-dashoffset: 1200;
  }
  to {
    stroke-dashoffset: 0;
  }
}
</style>
<g>
	<path class="st0" d="M30.378,25.272c-0.876,0-1.753,0.036-2.627-0.011c-0.829-0.044-1.645-0.114-2.202-0.93
		c-1.063-1.558-2.045-3.158-2.829-4.874c-0.437-0.958-0.77-1.949-0.647-3.031c0.169-1.507,0.645-2.936,1.18-4.339
		c0.956-2.506,2.06-4.951,3.129-7.41c0.386-0.888,0.789-1.776,0.989-2.732c0.053-0.251,0.16-0.579-0.102-0.743
		c-0.293-0.184-0.519,0.069-0.734,0.265c-0.623,0.565-1.126,1.228-1.636,1.892c-2.358,3.072-4.335,6.371-6.082,9.825
		c-1.221,2.412-1.491,4.841-0.747,7.451c1.123,3.938,2.986,7.514,5.135,10.962c0.309,0.496,0.497,0.989,0.503,1.595
		c0.049,4.721-0.113,9.44-0.03,14.161c0.067,3.828,0.365,7.638,0.74,11.442c0.355,3.597,0.841,7.178,1.461,10.739
		c0.414,2.382,0.859,4.756,1.62,7.058c0.239,0.723,0.505,1.434,0.977,2.05c0.163,0.213,0.343,0.363,0.613,0.344
		c0.299-0.022,0.388-0.273,0.479-0.506c0.133-0.34,0.199-0.696,0.229-1.057c0.165-1.997,0.059-3.994-0.025-5.989
		c-0.112-2.698-0.303-5.394-0.407-8.092c-0.118-3.086,0.093-6.163,0.349-9.235c0.129-1.554,0.341-3.1,0.488-4.651
		c0.051-0.535,0.264-0.527,0.654-0.314c1.031,0.56,2.085,1.079,3.106,1.654c0.941,0.53,1.852,1.118,2.669,1.83
		c0.55,0.479,0.536,0.671,0.063,1.233c-0.997,1.186-2.233,2.103-3.432,3.062c-0.828,0.662-1.693,1.282-2.373,2.109
		c-0.266,0.322-0.464,0.675-0.253,1.096c0.205,0.409,0.595,0.483,1.013,0.516c1.191,0.09,2.302-0.274,3.387-0.661
		c1.461-0.521,2.841-1.231,4.17-2.045c1.595-0.976,3.047-2.114,4.352-3.45c0.428-0.438,0.474-0.928,0.312-1.475
		c-0.288-0.978-0.763-1.866-1.341-2.695c-1.751-2.513-3.729-4.843-5.859-7.038c-0.455-0.469-0.638-0.931-0.621-1.563
		c0.069-2.665-0.042-5.329-0.115-7.993c-0.021-0.759-0.021-1.44,0.423-2.109c2.075-3.131,3.838-6.428,5.15-9.958
		c0.915-2.459,1.176-4.944,0.419-7.496c-1.202-4.056-3.379-7.54-6.216-10.637c-0.759-0.828-1.567-1.599-2.566-2.137
		c-0.276-0.148-0.592-0.258-0.86-0.049c-0.281,0.219-0.212,0.542-0.096,0.841c0.035,0.088,0.068,0.177,0.104,0.266
		c0.458,1.134,1.137,2.148,1.741,3.203c1.398,2.441,2.873,4.846,3.726,7.554c0.443,1.406,0.798,2.837,0.438,4.318
		c-0.652,2.692-1.994,5.042-3.694,7.199c-0.211,0.267-0.502,0.428-0.873,0.482C32.547,25.354,31.46,25.235,30.378,25.272z
		 M30.768,21.399c0.687,0.065,1.917-0.847,2.5-1.797c1.51-2.464,1.459-4.971,0.037-7.454c-0.393-0.685-0.977-1.253-1.72-1.521
		c-1.574-0.568-2.979-0.262-4.084,1.083c-1.576,1.917-1.838,4.948-0.69,7.229C27.5,20.31,28.539,21.285,30.768,21.399z"/>
	<path class="st0" d="M30.378,25.272c1.082-0.037,2.169,0.082,3.251-0.077c0.371-0.054,0.662-0.215,0.873-0.482
		c1.7-2.158,3.042-4.507,3.694-7.199c0.359-1.481,0.005-2.912-0.438-4.318c-0.853-2.708-2.327-5.113-3.726-7.554
		c-0.604-1.055-1.283-2.069-1.741-3.203c-0.036-0.088-0.069-0.177-0.104-0.266c-0.116-0.299-0.186-0.622,0.096-0.841
		c0.269-0.208,0.584-0.099,0.86,0.049c0.999,0.538,1.808,1.309,2.566,2.137c2.837,3.098,5.014,6.581,6.216,10.637
		c0.757,2.552,0.496,5.037-0.419,7.496c-1.313,3.53-3.075,6.827-5.15,9.958c-0.444,0.669-0.443,1.35-0.423,2.109
		c0.073,2.664,0.185,5.328,0.115,7.993c-0.017,0.632,0.166,1.094,0.621,1.563c2.131,2.195,4.108,4.525,5.859,7.038
		c0.578,0.829,1.053,1.718,1.341,2.695c0.162,0.547,0.116,1.037-0.312,1.475c-1.305,1.336-2.757,2.475-4.352,3.45
		c-1.329,0.813-2.709,1.523-4.17,2.045c-1.085,0.387-2.195,0.751-3.387,0.661c-0.418-0.032-0.808-0.106-1.013-0.516
		c-0.211-0.421-0.013-0.773,0.253-1.096c0.68-0.827,1.545-1.447,2.373-2.109c1.198-0.959,2.435-1.876,3.432-3.062
		c0.473-0.563,0.486-0.754-0.063-1.233c-0.817-0.712-1.728-1.3-2.669-1.83c-1.021-0.575-2.075-1.095-3.106-1.654
		c-0.391-0.213-0.604-0.221-0.654,0.314c-0.146,1.552-0.358,3.098-0.488,4.651c-0.256,3.072-0.467,6.149-0.349,9.235
		c0.104,2.698,0.294,5.394,0.407,8.092c0.083,1.995,0.189,3.992,0.025,5.989c-0.03,0.36-0.096,0.717-0.229,1.057
		c-0.091,0.232-0.179,0.483-0.479,0.506c-0.27,0.02-0.45-0.131-0.613-0.344c-0.472-0.616-0.738-1.327-0.977-2.05
		c-0.76-2.302-1.206-4.676-1.62-7.058c-0.62-3.562-1.105-7.143-1.461-10.739c-0.375-3.805-0.673-7.614-0.74-11.442
		c-0.083-4.721,0.08-9.44,0.03-14.161c-0.006-0.606-0.195-1.099-0.503-1.595c-2.149-3.448-4.012-7.024-5.135-10.962
		c-0.745-2.61-0.474-5.039,0.747-7.451c1.747-3.454,3.724-6.753,6.082-9.825c0.51-0.664,1.014-1.326,1.636-1.892
		c0.216-0.196,0.441-0.449,0.734-0.265c0.262,0.164,0.155,0.492,0.102,0.743c-0.2,0.956-0.603,1.844-0.989,2.732
		c-1.069,2.459-2.174,4.904-3.129,7.41c-0.535,1.404-1.01,2.833-1.18,4.339c-0.122,1.082,0.211,2.073,0.647,3.031
		c0.783,1.716,1.766,3.316,2.829,4.874c0.557,0.816,1.373,0.886,2.202,0.93C28.625,25.309,29.502,25.272,30.378,25.272z"/>
	<path class="st0" d="M30.768,21.399c-2.229-0.115-3.268-1.089-3.957-2.459c-1.148-2.28-0.886-5.311,0.69-7.229
		c1.105-1.345,2.51-1.652,4.084-1.083c0.743,0.268,1.327,0.836,1.72,1.521c1.422,2.483,1.473,4.99-0.037,7.454
		C32.685,20.552,31.454,21.465,30.768,21.399z"/>
</g>
</svg>
