<?xml version="1.0" encoding="utf-8"?>
<!-- Generator: Adobe Illustrator 16.0.0, SVG Export Plug-In . SVG Version: 6.00 Build 0)  -->
<!DOCTYPE svg PUBLIC "-//W3C//DTD SVG 1.1//EN" "http://www.w3.org/Graphics/SVG/1.1/DTD/svg11.dtd">
<svg version="1.1" id="Layer_1" xmlns="http://www.w3.org/2000/svg" xmlns:xlink="http://www.w3.org/1999/xlink" x="0px" y="0px"
	 width="600px" height="600px" viewBox="0 0 600 600" style="enable-background:new 0 0 600 600;" xml:space="preserve">
<style type="text/css">

	.st0{fill:#FFFFFF;stroke:#000000;stroke-miterlimit:10;}
    .st0 {
  stroke-dasharray: 1500;
  stroke-dashoffset: 1200;
  animation: dash 5s linear  forwards;
}

@keyframes dash {
  from {
    stroke-dashoffset: 1200;
  }
  to {
    stroke-dashoffset: 0;
  }
}
</style>
<g>
	<path class="st0" d="M75.379,195.183c5.124-7.779,10.982-15.184,15.176-23.436c4.724-9.293,11.777-14.485,21.329-17.873
		c37.453-13.281,73.894-9.741,109.641,5.986c21.713,9.553,41.217,22.866,60.766,36.148c7.898,5.364,5.133,13.214,6.553,20.104
		c3.053,1.168,4.746-1.13,6.734-2.303c13.946-8.227,28.302-15.637,43.84-20.321c6.063-1.827,10.207-4.84,13.212-10.548
		c5.204-9.883,11.632-19.129,16.679-29.082c3.764-7.426,8.561-8.88,15.836-5.94c3.719,1.503,7.721,2.322,11.615,3.368
		c16.09,4.324,16.424,4.28,18.203,20.884c0.686,6.413,3.021,9.05,9.434,10.086c13.605,2.199,26.279,7.223,37.828,14.952
		c30.125,20.161,35.961,50.845,14.926,80.43c-13.432,18.891-33.053,29.794-53.271,39.569c-18.541,8.964-38.285,14.44-58.455,18.421
		c-3.217,0.635-6.377,1.559-10.977,2.699c16.393,10.93,31.488,21.201,44.688,33.901c1.117,1.078,2.129,2.291,3.354,3.23
		c11.809,9.072,15.672,19.531,8.109,33.744c-4.625,8.693-7.088,18.527-10.609,27.814c-3.502,9.232-4.498,9.58-11.779,2.846
		c-23.277-21.525-47.877-41.49-72.305-61.66c-9.429-7.787-9.557-7.758-16.523,1.822c-7.336,10.09-15.506,19.434-24.83,27.707
		c-15.455,13.713-28.007,13.822-42.454-0.645c-14.581-14.604-14.994-9.182-4.598-28.193c4.154-7.596,4.831-18.427,16.134-20.864
		c0.64-0.137,0.911-3.402,0.843-5.193c-1.044-27.334-3.146-54.534-11.72-80.761c-4.993-15.271-13.279-28.667-23.759-40.792
		c-3.135-3.628-6.897-6.138-11.176-8.146c-34.422-16.156-70.578-22.918-108.52-20.338c-4.615,0.314-9.279-0.088-13.92-0.159
		C75.379,200.153,75.379,197.669,75.379,195.183z"/>
</g>
</svg>
