<?xml version="1.0" encoding="utf-8"?>
<!-- Generator: Adobe Illustrator 16.0.0, SVG Export Plug-In . SVG Version: 6.00 Build 0)  -->
<!DOCTYPE svg PUBLIC "-//W3C//DTD SVG 1.1//EN" "http://www.w3.org/Graphics/SVG/1.1/DTD/svg11.dtd">
<svg version="1.1" id="Layer_1" xmlns="http://www.w3.org/2000/svg" xmlns:xlink="http://www.w3.org/1999/xlink" x="0px" y="0px"
	 width="428px" height="305px" viewBox="0 0 428 305" style="enable-background:new 0 0 428 305;" xml:space="preserve">
<style type="text/css">

	.st0{fill:#FFFFFF;stroke:#000000;stroke-miterlimit:10;}
	    .st0 {
  stroke-dasharray: 1500;
  stroke-dashoffset: 1200;
  animation: dash 5s linear  forwards;
  -webkit-animation: dash 5s linear  forwards;
}

@keyframes dash {
  from {
    stroke-dashoffset: 1200;
  }
  to {
    stroke-dashoffset: 0;
  }
}

@-webkit-keyframes dash {
  from {
    stroke-dashoffset: 1200;
  }
  to {
    stroke-dashoffset: 0;
  }
}
</style>
<g>
	<path class="st0" d="M4.418,51.888c5.383-7.736,11.838-14.956,15.876-23.34c4.904-10.184,13.32-14.058,22.897-17.352
		c39.915-13.725,78.427-8.251,115.112,10.255c19.665,9.919,37.872,22.744,56.61,34.459c1.518,0.949,2.701,3.384,2.928,5.264
		c0.591,4.905,0.564,9.885,0.827,15.796c2.208-1.228,3.897-2.066,5.485-3.063c16.427-10.306,33.857-18.363,52.43-24.04
		c2.546-0.778,5.203-3.034,6.629-5.336c7.622-12.302,14.954-24.787,22.185-37.326c1.734-3.006,3.419-3.735,6.823-2.681
		c8.256,2.553,16.635,4.733,25.028,6.805c3.991,0.985,6.995,2.28,7.551,7.071c0.594,5.102,2.315,10.088,2.729,15.191
		c0.326,4.007,1.422,5.701,5.697,6.267c18.507,2.447,35.396,9.009,49.852,21.124c9.735,8.16,16.292,18.555,19.597,30.672
		c2.514,9.21-0.645,18.004-3.988,26.653c-8.324,21.528-25.346,34.483-44.304,45.626c-26.941,15.836-56.418,24.168-86.943,29.407
		c-1.134,0.195-2.258,0.449-4.669,0.932c2.089,1.417,3.287,2.307,4.556,3.078c21.322,12.954,40.865,28.069,57.546,46.761
		c2.694,3.017,3.208,5.561,1.736,9.379c-5.619,14.577-10.859,29.299-16.282,43.954c-0.508,1.373-1.295,2.645-1.983,4.027
		c-12.613-10.896-24.895-21.789-37.486-32.313c-16.355-13.669-33.005-26.984-49.407-40.599c-2.957-2.454-4.468-1.905-6.744,0.908
		c-8.366,10.345-16.591,20.862-25.734,30.494c-4.691,4.942-10.993,8.52-16.968,12.03c-5.557,3.265-12.096,3.106-17.167-0.485
		c-8.096-5.734-15.45-12.527-22.969-19.043c-0.59-0.511-0.433-2.579,0.078-3.558c5.595-10.737,11.33-21.4,17.18-32.371
		c2.601,1.028,4.97,1.964,7.905,3.125c-0.582-10.001-0.944-19.436-1.716-28.836c-1.73-21.096-4.244-42.047-11.044-62.278
		c-5.741-17.077-14.917-32.228-27.85-44.392c-5.864-5.516-14.737-8.141-22.595-11.172C85.366,62.002,55.75,57.237,25.291,57.953
		c-6.969,0.164-13.916,1.265-20.873,1.935C4.418,57.22,4.418,54.555,4.418,51.888z"/>
</g>
</svg>
