<svg width="640" height="480" xmlns="http://www.w3.org/2000/svg">
 <!-- Created with SVG-edit - http://svg-edit.googlecode.com/ -->
 <defs>
 	<style type="text/css">

	.st0{fill:#FFFFFF;}
	.st0 {
  stroke-dasharray: 300;
  stroke-dashoffset: 400;
  animation: dash 5s linear alternate infinite;
}

@keyframes dash {
  from {
    stroke-dashoffset: 400;
  }
  to {
    stroke-dashoffset: 0;
  }
}

</style>
 </defs>
 <g>
  <title>Layer 1</title>
  <line id="svg_3" y2="301" x2="299" y1="105" x1="107" stroke-width="5" stroke="#000000" fill="none"/>
  <line id="svg_4" y2="309" x2="102" y1="196" x1="197" stroke-width="5" stroke="#000000" fill="none"/>
  <path class="st0" d="m113,104c0,-1 0.69344,-2.4588 2,-3c0.92388,-0.38268 2.82443,0.90211 4,-1c0.52573,-0.85065 2.07612,-1.61732 3,-2c1.30656,-0.5412 2,-2 3,-2c1,0 2.29289,-0.29289 3,-1c0.70711,-0.70711 1,-1 2,-1c1,0 4.15099,0.56538 6,-2c0.58472,-0.81124 2.0535,-1.5405 4,-2c2.17625,-0.51374 3.07613,-1.61732 4,-2c1.30656,-0.5412 2,-1 3,-2c1,-1 2,-2 3,-2c1,0 1.07613,-0.61732 2,-1c1.30656,-0.5412 2,-1 3,-1c1,0 2.07613,0.38268 3,0c1.30656,-0.5412 2,-1 3,-1c1,0 2,0 3,0c2,0 3.15224,-0.23463 5,-1c1.30656,-0.5412 2,-1 4,-1c3,0 4,0 6,0c1,0 2,0 3,0c1,0 2,0 4,0c1,0 3,0 4,0c1,0 2,0 3,0c1,0 2,0 3,0c1,0 2,0 3,0c1,0 2,0 3,0c1,0 2,0 3,0c2,0 3.82375,0.48626 6,1c1.9465,0.4595 3,0 4,0c2,0 3,0 5,0c1,0 2,0 3,0c1,0 1,1 3,1c1,0 3,0 4,0c1,0 3,0 4,0c1,0 1,1 2,1c1,0 2.29289,-0.70711 3,0c0.70711,0.70711 1,1 2,1c1,0 1.29289,0.29289 2,1c0.70711,0.70711 1.29289,0.29289 2,1c0.70711,0.70711 1.29289,0.29289 2,1c0.70711,0.70711 0.69344,1.4588 2,2c0.92387,0.38268 2.07613,-0.38268 3,0c1.30656,0.5412 3.07613,0.61732 4,1c2.61313,1.08239 4.41885,2.41886 6,4c1.58115,1.58114 3.32367,3.52016 5,5c2.703,2.38616 4.51929,5.55819 7,9c2.6149,3.62798 2.33749,7.31001 4,10c1.487,2.40601 2.69254,4.186 4,6c1.65381,2.29454 2.61731,3.07612 3,4c0.5412,1.30656 1.29291,1.29289 2,2c0.70709,0.70711 -0.38269,2.07613 0,3c0.5412,1.30656 1.77023,1.02675 2,2c0.51373,2.17625 1.1731,2.85274 2,4c1.30746,1.814 1,4 1,5c0,1 1,2 1,3c0,1 1,2 1,3c0,1 0,2 0,3c0,1 0,3 0,5c0,1 0,2 0,3c0,1 0,2 0,3c0,2 0,3 0,6c0,3 0,6 -1,8c-1,2 -1.77023,5.02675 -2,6c-0.51373,2.17625 -1,4 -1,5c0,2 0,3 0,4c0,1 0,2 0,4c0,1 1.4588,0.69344 2,2c0.76538,1.84776 1,4 3,5c2,1 3.88153,3.19028 7,5c1.93399,1.12234 5.07843,2.78986 8,4c2.06586,0.85571 5,2 9,3c4,1 5.87857,1.49345 9,2c3.94836,0.64073 7.82376,0.48625 10,1c2.91974,0.68925 6.01291,-0.16019 7,0c3.12143,0.50655 5,1 6,1c2,0 3,0 4,0c1,0 4,0 7,0c1,0 2.07611,-0.61731 3,-1c1.30655,-0.5412 4.15225,-2.23463 6,-3c2.61313,-1.0824 4.05664,-2.91753 7,-5c4.0817,-2.88786 9.29871,-3.82108 11,-7c0.47186,-0.88167 1.198,-0.63297 7,-4c6.23697,-3.61945 8.69345,-6.4588 10,-7c1.84775,-0.76537 6,-3 14,-7c4,-2 5,-4 7,-5c2,-1 5.198,-2.63297 11,-6c3.11847,-1.80972 5.82376,-3.48625 8,-4c0.97324,-0.22975 1.38458,-0.21179 2,-1c2.53741,-3.24985 8,-2 10,-3c2,-1 3,-1 4,-1l1,0" id="svg_5" stroke-width="5" stroke="#000000" fill="none"/>
 </g>
</svg>