<?xml version="1.0" encoding="utf-8"?>
<!-- Generator: Adobe Illustrator 16.0.0, SVG Export Plug-In . SVG Version: 6.00 Build 0)  -->
<!DOCTYPE svg PUBLIC "-//W3C//DTD SVG 1.1//EN" "http://www.w3.org/Graphics/SVG/1.1/DTD/svg11.dtd">
<svg version="1.1" id="Layer_1" xmlns="http://www.w3.org/2000/svg" xmlns:xlink="http://www.w3.org/1999/xlink" x="0px" y="0px"
	 width="60px" height="80px" viewBox="0 0 60 80" style="enable-background:new 0 0 60 80;" xml:space="preserve">
<style type="text/css">
	.st0{fill-rule:evenodd;clip-rule:evenodd;fill:none;}
	.st1{fill:none;stroke:#E9B800;stroke-width:2;stroke-miterlimit:10;}
.st0 ,.st1 {
  stroke-dasharray: 370;
  stroke-dashoffset: 370;
  animation: dash 2s linear  forwards;
  -webkit-animation: dash 2s linear  forwards;
}

@keyframes dash {
  from {
    stroke-dashoffset: 370;
  }
  to {
    stroke-dashoffset: 0;
  }
}

@-webkit-keyframes dash {
  from {
    stroke-dashoffset: 1200;
  }
  to {
    stroke-dashoffset: 0;
  }
}
</style>
<g>
	<path class="st0" d="M58.248,41.369c0.057-2.78-0.197-5.717-0.658-8.637c-0.563-3.571-1.469-7.051-2.764-10.435
		c-1.035-2.698-2.313-5.276-3.855-7.716c-1.465-2.314-3.184-4.439-5.168-6.347c-1.547-1.488-3.227-2.804-5.098-3.863
		c-1.107-0.625-2.246-1.188-3.451-1.637C35.91,2.236,34.553,1.74,33.15,1.575c-3.28-0.384-6.529-0.288-9.708,0.843
		c-2.056,0.73-3.992,1.662-5.779,2.868c-2.522,1.702-4.678,3.814-6.553,6.19C7.975,15.45,5.729,19.89,4.186,24.678
		c-1.891,5.869-2.721,11.886-2.569,18.049c0.098,3.956,0.563,7.853,1.482,11.7c1.309,5.482,3.444,10.609,6.655,15.286
		c1.266,1.843,2.708,3.543,4.319,5.091c1.432,1.372,2.98,2.618,4.712,3.629c0.774,0.449,0.765,0.473,1.002-0.377
		c0.724-2.592,1.444-5.185,2.169-7.776c1.475-5.272,2.934-10.551,4.445-15.811c0.259-0.903,0.236-1.425-0.651-2.068
		c-1.977-1.427-3.12-3.508-3.827-5.803c-0.782-2.538-0.978-5.131-0.568-7.752c0.389-2.491,1.246-4.802,2.863-6.794
		c1.245-1.535,2.823-2.589,4.783-2.944c1.735-0.315,3.337,0.241,4.755,1.194c1.445,0.969,2.473,2.331,3.26,3.867
		c1.16,2.259,1.658,4.666,1.67,7.19c0.016,2.954-0.576,5.757-2.143,8.302c-0.756,1.229-1.66,2.358-2.939,3.12
		c-0.402,0.24-0.459,0.539-0.332,0.989c1.158,4.061,2.295,8.128,3.43,12.196c1.154,4.14,2.305,8.277,3.445,12.423
		c0.119,0.43,0.334,0.441,0.656,0.244c1.809-1.119,3.502-2.392,5.029-3.863c2.492-2.397,4.539-5.144,6.225-8.139
		c2.152-3.823,3.689-7.892,4.701-12.15C57.768,50.229,58.297,45.92,58.248,41.369z"/>
	<path class="st1" d="M58.248,41.369c0.049,4.551-0.48,8.86-1.49,13.11c-1.012,4.259-2.549,8.327-4.701,12.15
		c-1.686,2.995-3.732,5.741-6.225,8.139c-1.527,1.472-3.221,2.744-5.029,3.863c-0.322,0.197-0.537,0.186-0.656-0.244
		c-1.141-4.146-2.291-8.283-3.445-12.423c-1.135-4.068-2.271-8.136-3.43-12.196c-0.127-0.45-0.07-0.749,0.332-0.989
		c1.279-0.762,2.184-1.892,2.939-3.12c1.566-2.545,2.158-5.348,2.143-8.302c-0.012-2.524-0.51-4.931-1.67-7.19
		c-0.787-1.536-1.814-2.898-3.26-3.867c-1.418-0.954-3.02-1.509-4.755-1.194c-1.959,0.355-3.538,1.41-4.783,2.944
		c-1.617,1.992-2.474,4.304-2.863,6.794c-0.41,2.622-0.214,5.214,0.568,7.752c0.707,2.295,1.85,4.376,3.827,5.803
		c0.888,0.644,0.911,1.165,0.651,2.068c-1.511,5.26-2.97,10.538-4.445,15.811c-0.725,2.592-1.445,5.185-2.169,7.776
		c-0.237,0.85-0.228,0.826-1.002,0.377c-1.731-1.011-3.28-2.257-4.712-3.629c-1.612-1.548-3.053-3.248-4.319-5.091
		c-3.211-4.677-5.346-9.804-6.655-15.286c-0.919-3.848-1.384-7.744-1.482-11.7c-0.152-6.163,0.678-12.18,2.569-18.049
		c1.542-4.788,3.789-9.228,6.923-13.201c1.875-2.376,4.031-4.488,6.553-6.19c1.788-1.207,3.724-2.138,5.779-2.868
		c3.179-1.131,6.429-1.227,9.708-0.843c1.402,0.165,2.76,0.661,4.104,1.159c1.205,0.449,2.344,1.011,3.451,1.637
		c1.871,1.06,3.551,2.375,5.098,3.863c1.984,1.908,3.703,4.033,5.168,6.347c1.543,2.44,2.82,5.019,3.855,7.716
		c1.295,3.384,2.201,6.864,2.764,10.435C58.051,35.652,58.305,38.589,58.248,41.369z"/>
</g>
</svg>
