<?xml version="1.0" encoding="utf-8"?>
<!-- Generator: Adobe Illustrator 16.0.0, SVG Export Plug-In . SVG Version: 6.00 Build 0)  -->
<!DOCTYPE svg PUBLIC "-//W3C//DTD SVG 1.1//EN" "http://www.w3.org/Graphics/SVG/1.1/DTD/svg11.dtd">
<svg version="1.1" id="Layer_1" xmlns="http://www.w3.org/2000/svg" xmlns:xlink="http://www.w3.org/1999/xlink" x="0px" y="0px"
	 width="527.211px" height="527.211px" viewBox="0 0 527.211 527.211" style="enable-background:new 0 0 527.211 527.211;"
	 xml:space="preserve">
<style type="text/css">
<![CDATA[
	.st0{fill:#FFFFFF;stroke:#00AEEF;stroke-miterlimit:10;}
	.st1{fill:none;stroke:#00AEEF;stroke-width:10;stroke-miterlimit:10;}
	.st2{fill:none;stroke:#00AEEF;stroke-miterlimit:10;}
]]>
</style>
<g>
	<path class="st2" d="M265.647,517.81c14.497,0,28.994-0.079,43.49,0.055c3.608,0.033,5.082-1.132,4.991-4.872
		c-0.191-7.827,0.248-15.678-0.159-23.488c-0.257-4.917,1.379-6.825,6.227-8.026c38.497-9.54,72.155-28.092,100.798-55.529
		c32.125-30.775,53.31-67.913,63.515-111.213c0.94-3.988,2.62-5.072,6.4-4.959c7.492,0.225,14.998-0.051,22.493,0.104
		c3.428,0.07,4.698-1.183,4.688-4.65c-0.086-29.161-0.087-58.322,0.001-87.482c0.011-3.507-1.337-4.685-4.725-4.613
		c-7.162,0.151-14.36-0.363-21.485,0.163c-5.694,0.42-7.599-1.831-8.964-7.125c-9.649-37.392-28.032-70.048-54.733-97.911
		c-30.273-31.59-66.699-52.712-109.266-63.036c-3.811-0.924-5.045-2.697-4.92-6.535c0.266-8.156-0.036-16.33,0.127-24.492
		c0.071-3.544-1.002-5.068-4.807-5.054c-28.994,0.107-57.988,0.1-86.982,0.003c-3.618-0.012-5.067,1.154-4.979,4.882
		c0.188,7.994-0.188,16.005,0.144,23.99c0.187,4.477-1.23,6.35-5.743,7.389c-20.256,4.666-39.425,12.355-57.334,22.859
		c-54.515,31.973-90.111,78.502-106.378,139.639c-1.034,3.888-2.559,5.499-6.749,5.355c-8.988-0.307-17.994-0.017-26.991-0.124
		c-3.193-0.038-4.92,0.736-4.909,4.422c0.093,29.327,0.082,58.655,0.013,87.982c-0.008,3.285,1.356,4.365,4.489,4.324
		c8.33-0.11,16.686,0.345,24.987-0.157c5.424-0.328,7.377,1.577,8.602,6.766c9.244,39.151,28.028,73.237,55.812,102.265
		c30.255,31.609,66.698,52.711,109.261,63.043c3.805,0.924,5.069,2.681,4.927,6.526c-0.277,7.488-0.089,14.994-0.077,22.493
		c0.011,6.994,0.021,7.006,7.246,7.011C238.319,517.822,251.983,517.815,265.647,517.81z"/>
	<path class="st1" d="M265.647,517.813c-13.664,0.003-27.329,0.01-40.992,0.001c-7.225-0.005-7.234-0.017-7.246-7.011
		c-0.012-7.499-0.2-15.005,0.077-22.493c0.142-3.846-1.122-5.603-4.927-6.526c-42.563-10.332-79.006-31.434-109.261-63.043
		c-27.784-29.027-46.568-63.113-55.812-102.265c-1.225-5.188-3.177-7.094-8.602-6.766c-8.301,0.502-16.657,0.047-24.987,0.157
		c-3.133,0.041-4.497-1.039-4.489-4.324c0.069-29.327,0.08-58.655-0.013-87.982c-0.011-3.686,1.716-4.46,4.909-4.422
		c8.997,0.107,18.003-0.183,26.991,0.124c4.19,0.143,5.714-1.468,6.749-5.355c16.267-61.136,51.864-107.666,106.378-139.639
		c17.909-10.504,37.078-18.193,57.334-22.859c4.513-1.04,5.93-2.912,5.743-7.389c-0.333-7.985,0.044-15.996-0.144-23.99
		c-0.088-3.728,1.362-4.895,4.979-4.882c28.994,0.097,57.988,0.104,86.982-0.003c3.805-0.014,4.878,1.509,4.807,5.054
		c-0.163,8.162,0.139,16.335-0.127,24.492c-0.125,3.838,1.109,5.611,4.92,6.535c42.566,10.324,78.992,31.446,109.266,63.036
		c26.701,27.863,45.084,60.519,54.733,97.911c1.365,5.294,3.27,7.545,8.964,7.125c7.125-0.526,14.323-0.012,21.485-0.163
		c3.388-0.071,4.735,1.106,4.725,4.613c-0.088,29.16-0.087,58.321-0.001,87.482c0.011,3.468-1.26,4.721-4.688,4.65
		c-7.495-0.154-15.001,0.121-22.493-0.104c-3.78-0.113-5.46,0.971-6.4,4.959c-10.205,43.3-31.39,80.438-63.515,111.213
		c-28.643,27.438-62.301,45.989-100.798,55.529c-4.848,1.201-6.483,3.109-6.227,8.026c0.407,7.811-0.032,15.661,0.159,23.488
		c0.091,3.74-1.383,4.905-4.991,4.872C294.642,517.73,280.145,517.81,265.647,517.813z M266.084,105.862
		c-14.498,0-28.996-0.093-43.492,0.063c-3.833,0.041-5.395-1.134-5.249-5.137c0.249-6.823,0.084-13.662,0.057-20.494
		c-0.023-5.832-0.261-6.024-6.007-4.324c-38.118,11.284-70.036,32.094-95.571,62.562c-17.24,20.569-29.6,43.797-37.335,69.514
		c-1.141,3.792-0.85,5.435,3.702,5.207c6.481-0.325,12.994,0.019,19.49-0.107c3.168-0.061,4.458,1.111,4.451,4.361
		c-0.068,29.327-0.067,58.655,0,87.982c0.007,3.234-1.25,4.435-4.434,4.379c-6.997-0.123-14.004,0.16-20.993-0.097
		c-3.95-0.145-4.604,1.417-3.504,4.699c2.222,6.626,4.036,13.418,6.686,19.867c24.32,59.172,67.075,98.177,128.285,116.962
		c4.109,1.261,5.426,0.375,5.297-3.902c-0.217-7.158,0.046-14.33-0.092-21.493c-0.064-3.31,0.961-4.808,4.539-4.797
		c29.161,0.09,58.321,0.083,87.482,0.003c3.385-0.01,4.809,1.103,4.724,4.613c-0.169,6.995-0.061,13.996-0.032,20.995
		c0.024,5.83,0.262,6.024,6.008,4.324c38.12-11.284,70.028-32.107,95.574-62.563c18.146-21.632,30.771-46.193,38.488-73.342
		c1.199-4.218,0.315-5.566-4.19-5.384c-7.819,0.318-15.665-0.082-23.49,0.152c-3.982,0.119-5.165-1.386-5.149-5.235
		c0.113-28.828,0.125-57.656-0.009-86.483c-0.02-4.059,1.553-5.168,5.312-5.069c7.327,0.192,14.662,0.063,21.994,0.048
		c5.748-0.012,5.816-0.046,4.204-5.4c-11.317-37.564-32.046-68.967-62.082-94.158c-21.226-17.802-45.235-30.429-71.91-38.024
		c-3.675-1.046-4.872-0.197-4.79,3.53c0.142,6.496,0.043,12.997,0.033,19.496c-0.012,7.235-0.018,7.25-7.002,7.255
		C293.412,105.875,279.747,105.868,266.084,105.862z M265.224,504.132c9.981,0,19.967-0.122,29.945,0.063
		c3.733,0.069,5.348-0.851,5.309-4.998c-0.188-19.796-0.146-39.595-0.027-59.394c0.021-3.525-0.875-5.07-4.74-5.042
		c-19.964,0.149-39.93,0.147-59.893,0.002c-3.818-0.028-4.806,1.427-4.784,4.999c0.123,19.799,0.159,39.598-0.023,59.394
		c-0.038,4.092,1.474,5.121,5.266,5.042C245.921,503.998,255.574,504.131,265.224,504.132z M231.093,57.005
		c0,10.149,0.087,20.299-0.05,30.446c-0.044,3.299,0.844,4.811,4.477,4.789c20.13-0.124,40.262-0.122,60.393,0
		c3.574,0.021,4.549-1.378,4.531-4.734c-0.104-19.964-0.1-39.93-0.002-59.894c0.016-3.297-0.843-4.811-4.476-4.788
		c-20.13,0.124-40.262,0.122-60.393,0c-3.574-0.021-4.583,1.375-4.533,4.734C231.188,37.372,231.093,47.19,231.093,57.005z
		 M92.419,261.168c0-9.816-0.124-19.635,0.064-29.447c0.07-3.66-1.12-4.957-4.856-4.931c-19.797,0.139-39.597,0.147-59.394-0.006
		c-3.879-0.03-5.221,1.144-5.188,5.114c0.163,19.797,0.144,39.596,0.012,59.394c-0.024,3.655,1.118,4.956,4.855,4.93
		c19.963-0.139,39.929-0.122,59.893-0.012c3.424,0.019,4.729-1.089,4.672-4.597C92.313,281.467,92.418,271.316,92.419,261.168z
		 M504.367,262.03c0-10.149-0.087-20.299,0.05-30.446c0.045-3.302-0.849-4.809-4.479-4.787c-20.13,0.124-40.261,0.122-60.393,0
		c-3.575-0.021-4.546,1.383-4.528,4.736c0.104,19.964,0.1,39.929,0.002,59.893c-0.016,3.3,0.848,4.809,4.478,4.786
		c20.131-0.124,40.262-0.122,60.392,0c3.577,0.021,4.582-1.38,4.531-4.737C504.272,281.663,504.367,271.846,504.367,262.03z"/>
	<path class="st1" d="M266.084,105.865c13.663,0.003,27.328,0.01,40.991,0c6.984-0.005,6.99-0.021,7.002-7.255
		c0.01-6.499,0.108-13-0.033-19.496c-0.082-3.727,1.115-4.577,4.79-3.53c26.675,7.595,50.685,20.223,71.91,38.024
		c30.036,25.191,50.765,56.594,62.082,94.158c1.612,5.354,1.544,5.388-4.204,5.4c-7.332,0.016-14.667,0.145-21.994-0.048
		c-3.759-0.099-5.331,1.011-5.312,5.069c0.134,28.828,0.122,57.655,0.009,86.483c-0.016,3.85,1.167,5.354,5.149,5.235
		c7.825-0.234,15.671,0.166,23.49-0.152c4.506-0.183,5.39,1.166,4.19,5.384c-7.718,27.148-20.342,51.71-38.488,73.342
		c-25.546,30.455-57.454,51.278-95.574,62.563c-5.746,1.7-5.983,1.506-6.008-4.324c-0.028-6.999-0.137-14,0.032-20.995
		c0.085-3.511-1.339-4.623-4.724-4.613c-29.161,0.08-58.322,0.087-87.482-0.003c-3.578-0.011-4.603,1.487-4.539,4.797
		c0.138,7.163-0.125,14.335,0.092,21.493c0.129,4.277-1.188,5.163-5.297,3.902c-61.21-18.785-103.965-57.79-128.285-116.962
		c-2.65-6.449-4.464-13.241-6.686-19.867c-1.101-3.282-0.446-4.844,3.504-4.699c6.989,0.257,13.996-0.026,20.993,0.097
		c3.184,0.056,4.441-1.145,4.434-4.379c-0.067-29.327-0.068-58.655,0-87.982c0.007-3.25-1.283-4.422-4.451-4.361
		c-6.496,0.125-13.008-0.218-19.49,0.107c-4.551,0.229-4.843-1.414-3.702-5.207c7.736-25.717,20.096-48.945,37.335-69.514
		c25.535-30.468,57.453-51.278,95.571-62.562c5.746-1.7,5.984-1.507,6.007,4.324c0.027,6.832,0.192,13.67-0.057,20.494
		c-0.146,4.003,1.417,5.178,5.249,5.137C237.088,105.77,251.586,105.862,266.084,105.865z"/>
	<path class="st0" d="M265.224,504.131c-9.65,0-19.303-0.133-28.948,0.066c-3.792,0.079-5.303-0.95-5.266-5.042
		c0.182-19.796,0.146-39.595,0.023-59.394c-0.022-3.572,0.966-5.027,4.784-4.999c19.963,0.146,39.929,0.147,59.893-0.002
		c3.865-0.028,4.762,1.517,4.74,5.042c-0.118,19.799-0.16,39.598,0.027,59.394c0.039,4.147-1.575,5.067-5.309,4.998
		C285.19,504.01,275.205,504.132,265.224,504.131z M257.12,473.718c3.297,2.973,6.563,2.191,9.515,1.951
		c6.461-0.522,8.389-4.152,5.705-10.072c-0.265-0.583-0.657-1.276-0.549-1.832c0.63-3.244-0.107-5.799-3.682-6.352
		c-3.724-0.576-7.541-0.766-10.052,3.569c2.913,0.656,8.956-0.404,2.976,4.855c-0.756,0.665-0.5,1.513,0.365,2.03
		c1.826,1.092,2.574,2.517,1.524,4.562C261.767,474.684,259.7,473.3,257.12,473.718z"/>
	<path class="st2" d="M231.093,57.005c0-9.815,0.095-19.633-0.052-29.447c-0.05-3.359,0.959-4.756,4.533-4.734
		c20.131,0.122,40.263,0.124,60.393,0c3.633-0.022,4.491,1.491,4.476,4.788c-0.098,19.964-0.102,39.929,0.002,59.894
		c0.018,3.356-0.957,4.755-4.531,4.734c-20.131-0.122-40.262-0.124-60.393,0c-3.632,0.022-4.521-1.489-4.477-4.789
		C231.18,77.304,231.093,67.154,231.093,57.005z M275.415,60.556c-5.001-2.705-2.653-6.775-3.583-9.987
		c-0.823-2.846,3.1-6.591-0.41-7.938c-2.676-1.027-6.41,0.696-9.671,1.212c-0.322,0.051-0.626,0.214-0.939,0.322
		c-1.311,0.45-1.899,0.869-0.886,2.45c3.048,4.754,2.725,9.383-1.983,13.941C263.97,60.556,269.188,60.556,275.415,60.556z"/>
	<path class="st0" d="M92.245,261.171c0,10.148-0.106,20.299,0.058,30.445c0.057,3.508-1.248,4.615-4.672,4.597
		c-19.964-0.11-39.93-0.127-59.893,0.012c-3.737,0.026-4.88-1.274-4.855-4.93c0.132-19.798,0.151-39.597-0.012-59.394
		c-0.033-3.97,1.309-5.144,5.188-5.114c19.797,0.153,39.597,0.145,59.394,0.006c3.737-0.026,4.926,1.271,4.856,4.931
		C92.122,241.536,92.246,251.355,92.245,261.171z M66.682,258.84c-3.455-1.504-2.825-5.504-4.266-8.545
		c-0.674-1.423-2.059-0.598-2.979,0.095c-3.173,2.388-6.313,4.822-9.427,7.286c-1.425,1.127-2.502,3.452-1.413,4.296
		c3.329,2.579,6.997,4.938,10.891,6.477C61.371,269.19,66.806,261.876,66.682,258.84z"/>
	<path class="st2" d="M504.367,262.03c0,9.815-0.095,19.633,0.052,29.446c0.051,3.357-0.954,4.759-4.531,4.737
		c-20.13-0.122-40.261-0.124-60.392,0c-3.63,0.022-4.493-1.486-4.478-4.786c0.098-19.964,0.102-39.929-0.002-59.893
		c-0.018-3.354,0.953-4.758,4.528-4.736c20.132,0.122,40.263,0.124,60.393,0c3.631-0.022,4.524,1.484,4.479,4.787
		C504.28,241.731,504.367,251.881,504.367,262.03z M476.993,264.636c3.359-4.771,3.814-8.091,1.567-10.491
		c-2.268-2.422-9.154-2.777-12.154-0.629c-1.281,0.918-2.422,2.085-1.806,3.715c0.661,1.751,1.886,0.474,2.871,0.136
		c2.898-0.995,3.127,0.861,2.948,2.886c-0.305,3.463-2.62,5.571-5.268,7.428c-0.786,0.552-1.821,1.141-1.272,2.348
		c0.396,0.869,1.384,0.78,2.187,0.785c3.479,0.021,6.981,0.25,10.431-0.072c4.136-0.387,5.274-3.282,5.768-6.932
		C479.878,263.511,479.042,265.722,476.993,264.636z"/>
	<path class="st0" d="M257.12,473.718c2.58-0.418,4.646,0.966,5.803-1.288c1.05-2.045,0.302-3.47-1.524-4.562
		c-0.865-0.518-1.121-1.365-0.365-2.03c5.98-5.26-0.063-4.199-2.976-4.855c2.511-4.335,6.328-4.146,10.052-3.569
		c3.574,0.553,4.312,3.107,3.682,6.352c-0.108,0.556,0.284,1.249,0.549,1.832c2.684,5.92,0.756,9.55-5.705,10.072
		C263.683,475.909,260.417,476.69,257.12,473.718z"/>
	<path class="st2" d="M275.415,60.556c-6.228,0-11.445,0-17.473,0c4.708-4.558,5.031-9.187,1.983-13.941
		c-1.014-1.582-0.425-2,0.886-2.45c0.313-0.108,0.617-0.271,0.939-0.322c3.261-0.516,6.995-2.239,9.671-1.212
		c3.51,1.347-0.413,5.092,0.41,7.938C272.762,53.78,270.414,57.851,275.415,60.556z"/>
	<path class="st0" d="M66.855,258.837c0.124,3.036-5.312,10.351-7.193,9.607c-3.894-1.539-7.563-3.897-10.891-6.477
		c-1.089-0.844-0.012-3.168,1.413-4.296c3.115-2.464,6.254-4.897,9.427-7.286c0.92-0.693,2.305-1.518,2.979-0.095
		C64.03,253.333,63.4,257.333,66.855,258.837z"/>
	<path class="st2" d="M476.993,264.636c2.049,1.086,2.885-1.125,5.271-0.826c-0.493,3.649-1.632,6.545-5.768,6.932
		c-3.449,0.322-6.952,0.093-10.431,0.072c-0.803-0.005-1.791,0.084-2.187-0.785c-0.549-1.207,0.486-1.796,1.272-2.348
		c2.647-1.857,4.963-3.965,5.268-7.428c0.179-2.025-0.05-3.881-2.948-2.886c-0.985,0.338-2.21,1.616-2.871-0.136
		c-0.616-1.63,0.524-2.797,1.806-3.715c3-2.148,9.887-1.793,12.154,0.629C480.808,256.545,480.353,259.864,476.993,264.636z"/>
</g>
</svg>
