<?xml version="1.0" encoding="utf-8"?>
<!-- Generator: Adobe Illustrator 16.0.0, SVG Export Plug-In . SVG Version: 6.00 Build 0)  -->
<!DOCTYPE svg PUBLIC "-//W3C//DTD SVG 1.1//EN" "http://www.w3.org/Graphics/SVG/1.1/DTD/svg11.dtd">
<svg version="1.1" id="Layer_1" xmlns="http://www.w3.org/2000/svg" xmlns:xlink="http://www.w3.org/1999/xlink" x="0px" y="0px"
	 width="60px" height="80px" viewBox="0 0 60 80" style="enable-background:new 0 0 60 80;" xml:space="preserve">
<style type="text/css">
	.st0{fill:none;stroke:#1D1D19;stroke-miterlimit:10;}
	.st1{fill:#1D1D19;}

#Layer_1:hover .st0{
stroke:#E8A423;
stroke-dasharray: 470;
  stroke-dashoffset: 370;
  animation: dash 2s linear  forwards;
  -webkit-animation: dash 2s linear  forwards;
}

#Layer_1:hover .st1{
stroke:#E8A423;
stroke-dasharray: 470;
  stroke-dashoffset: 370;
  animation: dash 2s linear  forwards;
  -webkit-animation: dash 2s linear  forwards;
}
@keyframes dash {
  from {
    stroke-dashoffset: 470;
  }
  to {
    stroke-dashoffset: 0;
  }
}

@-webkit-keyframes dash {
  from {
    stroke-dashoffset: 470;
  }
  to {
    stroke-dashoffset: 0;
  }
}
</style>
<g>
	<path class="st0" d="M25.03,1.006c0.775,0.851,1.598,1.634,2.264,2.614c0.788,1.161,2.257,1.608,3.442,2.32
		c3.507,2.107,7.102,4.07,10.658,6.097c0.87,0.497,1.741,0.996,2.58,1.542c0.563,0.367,0.85,0.871,0.458,1.562
		c-0.444,0.783-0.898,0.192-1.307-0.003c-3.266-1.56-6.3-3.529-9.42-5.347c-1.845-1.075-3.642-2.262-5.576-3.146
		c-2.495-1.141-6.547-0.722-8.504,1.973c-0.25,0.344-0.478,0.772-0.524,1.183c-0.266,2.369-1.149,4.573-1.853,6.814
		c-0.39,1.244-0.046,2.244,0.474,3.236c0.335,0.64,0.672,1.189,0.457,1.951c-0.098,0.344,0.052,0.771,0.475,0.801
		c0.482,0.034,0.523-0.412,0.494-0.757c-0.101-1.177,0.527-2.318,0.153-3.512c-0.058-0.186,0.029-0.435,0.098-0.638
		c0.904-2.679,5.201-4.368,7.483-2.719c2.731,1.975,3.961,4.18,2.777,7.579c-0.257,0.736-0.421,1.392-0.156,2.15
		c0.162,0.464,0.072,0.925-0.252,1.36c-0.256,0.343-0.415,0.767-0.576,1.172c-0.913,2.299-0.815,2.212,0.897,4.036
		c2.207,2.349,4.264,4.844,6.103,7.498c2.091,3.017,4.587,5.712,6.763,8.656c1.51,2.043,3.231,3.959,4.111,6.426
		c0.174,0.488,0.738,0.838,1.122,1.252c3.17,3.422,6.341,6.845,9.51,10.267c0.504,0.544,1.006,1.09,1.508,1.635
		c0,0.088,0,0.176,0,0.263c-0.394,0.972-0.908,1.096-1.623,0.271c-0.572-0.658-1.192-1.276-1.79-1.912
		c-3.285-3.497-6.561-7.002-9.861-10.483c-0.496-0.522-1.155-0.919-1.818-0.261c-1.699,1.686-1.684,1.7-3.336,0.05
		c-0.123-0.123-0.288-0.205-0.406-0.331c-2.199-2.354-4.509-4.603-6.293-7.327c-0.648-0.989-1.673-1.834-2.784-2.213
		c-0.922-0.314-1.79-0.608-2.57-1.197c-0.577-0.435-1.169-0.953-2.174-0.525c1.432,1.465,2.12,3.323,3.574,4.78
		c2.078,2.084,3.238,4.917,5.001,7.3c1.113,1.505,2.38,2.604,4.16,3.127c0.5,0.146,1.133,0.169,1.47,0.493
		c2.189,2.106,5.209,3.266,6.844,6.002c0.182,0.304,0.473,0.53,0.854,0.548c1.087,0.049,1.63,0.876,2.042,1.653
		c0.466,0.88,1.192,1.48,1.8,2.209c0.748,0.898,1.813,1.511,2.347,2.597c0.489,0.996,0.178,2.19-0.875,2.698
		c-0.843,0.407-1.755,0.483-2.423-0.522c-0.362-0.545-0.73-1.068-1.018-1.668c-0.67-1.4-0.969-1.436-1.819-0.148
		c-0.651,0.986-1.357,1.312-2.396,0.643c-3.406-2.195-6.729-4.501-9.735-7.237c-0.547-0.498-1.104-1.082-1.768-1.34
		c-2.937-1.14-5.617-2.778-8.417-4.182c-0.469-0.234-0.815-0.467-0.92,0.404c-0.099,0.829-0.938,1.002-1.628,1.045
		c-0.625,0.037-0.737-0.584-0.769-1.042c-0.089-1.318-0.7-1.972-2.063-1.879c-0.34,0.022-0.688-0.115-1.036-0.15
		c-0.779-0.078-1.697-0.644-2.291-0.21c-0.785,0.574,0.064,1.529,0.004,2.324c-0.003,0.043,0.004,0.087,0.009,0.131
		c0.139,1.157-0.949,1.011-1.51,1.27c-0.645,0.298-0.687-0.44-0.8-0.885c-0.504-1.964-0.572-1.988-2.27-0.719
		c-0.139,0.104-0.267,0.229-0.379,0.361c-0.437,0.519-1.671,0.161-1.531,1.204c0.094,0.703,0.565,1.356,0.871,2.031
		c0.036,0.079,0.098,0.146,0.136,0.225c1.104,2.214,2.291,4.363,3.752,6.383c1.788,2.47,1.48,3.405-1.147,4.846
		c-0.076,0.042-0.134,0.118-0.212,0.154c-1.841,0.845-3.194,2.428-5.007,3.313c-0.433,0.211-0.886,0.465-1.359,0.135
		c-0.405-0.282-0.34-0.796-0.174-1.083c1.286-2.229,0.679-4.1-0.984-5.813c-0.088-0.091-0.134-0.225-0.189-0.344
		c-1.836-3.969-3.755-7.901-5.075-12.087c0-0.525,0-1.052,0-1.578c0.443-0.914,1.057-1.702,1.81-2.378
		c2.604-2.338,5.626-4.083,8.554-5.957c0.903-0.578,1.361-1.299,1.385-2.341c0.013-0.562-0.143-1.233,0.369-1.602
		c0.262-0.189,0.492-1.556,0.339-2.004c-1.13-3.311-0.675-6.725-0.775-10.106c-0.042-1.429,0.515-2.805,0.08-4.283
		c-1.1-3.738-1.703-7.582-1.837-11.475c-0.117-3.385,0.396-6.691,1.453-9.936c0.625-1.919,0.901-2.285,2.935-2.324
		c0.594-0.011,1.208,0.175,1.763-0.274c1.412-1.142,3.108-1.961,4.023-3.655c0.26-0.482,0.761-0.707,1.202-0.988
		C23.277,1.006,24.154,1.006,25.03,1.006z"/>
</g>
<path class="st0" d="M14.368,45.44"/>
<path class="st0" d="M13.559,44.047c15.655,3.645,11.082,0.445,16.046,4.073"/>
<path class="st0" d="M12.85,47.652c18.154,3.272,17.697,1.901,18.154,3.272"/>
<path class="st0" d="M13.559,59.798"/>
<g>
	<g>
		<path class="st1" d="M14.564,60.385c0.284-1.884,0.617-3.898,1.548-5.593c0.51-0.928,1.121-1.788,1.603-2.733
			c0.668-1.311,0.815-2.595-0.721-3.173c-0.795-0.3-0.468,0.411,0.048,0.605c0.78,0.294-1.463,3.793-1.713,4.19
			c-1.175,1.87-1.566,4.097-1.89,6.248C13.387,60.278,14.501,60.804,14.564,60.385L14.564,60.385z"/>
	</g>
</g>
<g>
	<g>
		<path class="st1" d="M16.696,59.849c1.299-3.342,3.77-6.423,3.748-10.146c-0.002-0.353-0.635-0.996-0.636-1.027
			c0.022,3.724-2.448,6.805-3.748,10.146C15.949,59.108,16.661,59.938,16.696,59.849L16.696,59.849z"/>
	</g>
</g>
<g>
	<g>
		<path class="st1" d="M18.762,53.797c0.395,0.796,0.975,1.457,1.462,2.194c0.551,0.832,0.626,2.003,1.005,2.925
			c0.247,0.599,1.334-0.016,1.083-0.625c-0.348-0.843-0.5-1.745-0.842-2.593c-0.371-0.922-1.182-1.631-1.626-2.526
			C19.554,52.585,18.469,53.205,18.762,53.797L18.762,53.797z"/>
	</g>
</g>
<g>
	<g>
		<path class="st1" d="M19.6,49.926c3.083,0.973,5.048,7.072,4.678,9.965c-0.066,0.519,1.146,0.259,1.204-0.197
			c0.421-3.291-1.732-9.42-5.194-10.512C19.859,49.047,18.899,49.705,19.6,49.926L19.6,49.926z"/>
	</g>
</g>
<g>
	<g>
		<path class="st1" d="M19.927,49.777c0.307-0.602,0.503-1.241,0.762-1.863c0.333-0.801,0.95-1.335,1.682-1.771
			c0.092-0.055-0.396-0.131-0.428-0.134c-0.193-0.021-0.59-0.1-0.771,0.009c-0.667,0.397-1.228,0.856-1.604,1.545
			c-0.368,0.675-0.538,1.445-0.888,2.133C18.694,49.667,19.805,50.017,19.927,49.777L19.927,49.777z"/>
	</g>
</g>
<g>
	<g>
		<path class="st1" d="M17.131,48.804c0.781-1.713,2.4-2.204,4.04-2.822c0.577-0.218-0.033-1.306-0.627-1.082
			c-1.847,0.697-3.5,1.304-4.37,3.211C15.926,48.655,16.828,49.469,17.131,48.804L17.131,48.804z"/>
	</g>
</g>
<g>
	<g>
		<path class="st1" d="M18.071,49.624c0.129,0.127,0.261,0.229,0.42,0.317c0.135-0.028,0.27-0.057,0.405-0.085
			c-0.391-0.069-0.758-0.362-1.065-0.599c-0.135,0.028-0.27,0.057-0.405,0.085c0.487,0.095,0.976,0.179,1.462,0.274
			c0.142,0.027,0.726,0.055,0.316-0.133c-0.322-0.147-0.656-0.259-0.991-0.371c-0.067-0.022-0.874-0.146-0.782-0.037
			c0.459,0.545,1.167,0.803,1.843,0.962c0.057,0.014,0.832,0.13,0.568-0.049c-0.73-0.498-1.407-0.994-2.269-1.242
			c-0.205-0.059-0.552-0.186-0.767-0.101c-0.141,0.056,0.365,0.244,0.388,0.251c0.583,0.167,1.077,0.617,1.571,0.953
			c0.189-0.017,0.378-0.033,0.568-0.049c-0.289-0.068-0.53-0.28-0.716-0.501c-0.261-0.013-0.521-0.025-0.782-0.037
			c0.16,0.053,0.317,0.107,0.471,0.178c0.105-0.044,0.211-0.089,0.316-0.133c-0.487-0.096-0.976-0.18-1.462-0.274
			c-0.064-0.012-0.64-0.096-0.405,0.085c0.709,0.549,1.527,0.89,2.409,1.046c0.043,0.008,0.668,0.063,0.405-0.085
			c-0.118-0.066-0.215-0.137-0.312-0.231c-0.171-0.169-0.501-0.224-0.726-0.267C18.51,49.578,17.966,49.521,18.071,49.624
			L18.071,49.624z"/>
	</g>
</g>
<g>
	<g>
		<path class="st1" d="M18.144,48.875c-0.059,0.122-0.032,0.243-0.091,0.365c0.385,0.059,0.769,0.116,1.154,0.175
			c-0.753-0.436-1.596-0.739-2.471-0.777c-0.068-0.003-0.485-0.007-0.259,0.141c0.226,0.146,0.561,0.217,0.826,0.229
			c0.295,0.013,0.568,0.175,0.82,0.32c0.159,0.092,1.035,0.422,1.154,0.175c0.059-0.122,0.032-0.243,0.091-0.365
			C19.419,49.028,18.267,48.622,18.144,48.875L18.144,48.875z"/>
	</g>
</g>
<g>
	<g>
		<path class="st1" d="M21.977,59.417c0.751,0,0.952-1.078,0.138-1.078C21.364,58.339,21.163,59.417,21.977,59.417L21.977,59.417z"
			/>
	</g>
</g>
<g>
	<g>
		<path class="st1" d="M18.831,47.966c0.507-0.785,1.54-0.901,2.103-1.646c-0.027,0.035-1.049-0.018-1.227,0.047
			c-0.527,0.191-1.026,0.448-1.554,0.64c0.402-0.009,0.804-0.017,1.206-0.025c0.741-0.357,1.515-0.628,2.285-0.914
			c-0.402,0.009-0.804,0.017-1.206,0.025c-1.059,0.824-1.867,1.941-3.016,2.651c0.409-0.016,0.818-0.031,1.227-0.047
			c0.629-0.738,1.531-1.231,2.263-1.861c0.286-0.246,0.545-0.521,0.75-0.837c0.094-0.146,0.145-0.307,0.178-0.475
			c0.051-0.256-0.302-0.27-0.473-0.32c-0.236-0.071-0.53-0.033-0.771-0.012c-0.043,0.004-0.5,0.099-0.431,0.119
			c1.087,0.325-0.46,1.562-0.871,1.891c-0.635,0.509-1.362,0.939-1.895,1.563c-0.012,0.015,0.44,0.05,0.462,0.049
			c0.211-0.004,0.574,0.021,0.765-0.096c1.148-0.711,1.957-1.827,3.016-2.651c0.075-0.059-0.406-0.071-0.441-0.07
			c-0.249,0.005-0.528,0.008-0.765,0.096c-0.77,0.286-1.544,0.558-2.285,0.914c-0.07,0.034,0.401,0.071,0.441,0.07
			c0.25-0.005,0.526-0.01,0.765-0.096c0.527-0.191,1.026-0.448,1.554-0.64c-0.409,0.016-0.818,0.031-1.227,0.047
			c-0.563,0.744-1.59,0.853-2.103,1.646c-0.015,0.022,0.594,0.045,0.628,0.043C18.332,48.07,18.75,48.09,18.831,47.966
			L18.831,47.966z"/>
	</g>
</g>
<g>
	<g>
		<path class="st1" d="M18.351,47.977c0.391-0.193,0.737-0.286,0.971-0.684c0.168-0.287-0.244-1.282-0.642-1.051
			c-0.063,0.037-0.125,0.073-0.188,0.109c-0.389,0.228,0.203,1.327,0.577,1.109c0.063-0.037,0.125-0.073,0.188-0.109
			c-0.214-0.351-0.428-0.7-0.642-1.051c-0.201,0.342-0.507,0.401-0.842,0.566C17.381,47.062,17.951,48.174,18.351,47.977
			L18.351,47.977z"/>
	</g>
</g>
<g>
	<g>
		<path class="st1" d="M16.853,48.689c-0.01,0.005-0.021,0.011-0.031,0.016c-0.246,0.123,0.17,0.451,0.258,0.503
			c0.224,0.134,0.538,0.242,0.787,0.118c0.01-0.005,0.021-0.011,0.031-0.016c0.246-0.123-0.17-0.451-0.258-0.503
			C17.415,48.674,17.102,48.565,16.853,48.689L16.853,48.689z"/>
	</g>
</g>
<g>
	<g>
		<path class="st1" d="M19.65,50.284c0.007,0,0.014,0,0.021,0c0.162,0,0.581-0.083,0.479-0.339
			c-0.102-0.257-0.505-0.312-0.737-0.312c-0.007,0-0.014,0-0.021,0c-0.162,0-0.581,0.083-0.479,0.339
			C19.014,50.229,19.418,50.284,19.65,50.284L19.65,50.284z"/>
	</g>
</g>
<g>
	<g>
		<path class="st1" d="M29.994,51.19c0.69,0.34,1.284,0.803,1.917,1.23c0.495,0.334,1.237-0.02,0.795-0.612
			c-0.772-1.034-2.02-1.39-3.234-1.636c-1.578-0.318-3.169-0.962-4.781-0.992c-0.735-0.015-0.495,0.912,0.088,0.999
			c1.018,0.15,1.943,0.622,2.938,0.875c1.024,0.259,2.025,0.051,3.028,0.511c0.712,0.327,1.096-0.556,0.387-0.881
			c-0.833-0.383-1.647-0.479-2.554-0.534c-1.316-0.079-2.44-0.764-3.73-0.955c0.029,0.333,0.059,0.666,0.088,0.999
			c1.309,0.025,2.497,0.646,3.78,0.846c1.098,0.172,2.369,0.325,3.079,1.276c0.265-0.204,0.53-0.408,0.795-0.612
			c-0.729-0.491-1.418-1.007-2.208-1.395C29.676,49.963,29.297,50.849,29.994,51.19L29.994,51.19z"/>
	</g>
</g>
</svg>
